<svg width="32" height="30" viewBox="0 0 32 30" fill="none" xmlns="http://www.w3.org/2000/svg">
<g clip-path="url(#clip0_1_234)">
<path d="M28.9005 0C28.2874 0 27.6882 0.178309 27.1784 0.51238C26.6687 0.84645 26.2714 1.32128 26.0368 1.87682C25.8022 2.43235 25.7409 3.04365 25.8605 3.63341C25.9801 4.22317 26.2753 4.76489 26.7087 5.19008C27.1422 5.61527 27.6945 5.90483 28.2958 6.02214C28.897 6.13945 29.5202 6.07924 30.0866 5.84913C30.653 5.61902 31.1371 5.22934 31.4776 4.72937C31.8182 4.2294 32 3.64159 32 3.04028C32 2.23395 31.6734 1.46064 31.0922 0.890477C30.5109 0.320314 29.7225 0 28.9005 0ZM28.9005 4.74313C28.5571 4.74313 28.2215 4.64326 27.936 4.45614C27.6505 4.26903 27.428 4.00309 27.2966 3.69193C27.1652 3.38078 27.1308 3.03839 27.1978 2.70807C27.2648 2.37775 27.4301 2.07433 27.6729 1.83619C27.9157 1.59804 28.225 1.43586 28.5618 1.37015C28.8985 1.30445 29.2476 1.33817 29.5648 1.46706C29.882 1.59594 30.1532 1.8142 30.3439 2.09423C30.5347 2.37426 30.6365 2.70349 30.6365 3.04028C30.6365 3.4919 30.4536 3.92503 30.128 4.24437C29.8025 4.56372 29.3609 4.74313 28.9005 4.74313Z" fill="url(#paint0_radial_1_234)"/>
<path d="M4.44585 29.8794C4.07701 29.8794 3.59259 29.9627 3.59259 29.2174C3.59259 23.2502 3.54955 14.5044 3.63931 8.54442C3.63931 5.74051 5.39133 0.432983 11.4687 0.432983C17.8449 0.432983 19.2305 6.15054 19.2305 8.54442C19.2305 12.5977 19.2957 25.3691 19.2957 29.2089C19.2957 29.9204 19.2957 29.9204 18.6022 29.9204C17.3346 29.9072 19.4248 29.9204 18.1572 29.9204C17.0371 29.9204 17.0383 29.9204 17.0383 28.975C17.0482 28.975 17.0482 8.53959 17.0383 8.53959C17.0383 5.88643 15.4892 2.39753 11.4392 2.39753C7.50483 2.39753 5.99624 5.88523 5.99624 8.53959C5.9569 11.7439 5.99624 26.8114 5.99624 29.2125C5.99624 29.9204 5.65322 29.8698 5.36674 29.8698" fill="black"/>
<path d="M25.9496 7.60612H27.4041C27.4407 7.60707 27.4754 7.62197 27.5009 7.64765C27.5264 7.67333 27.5406 7.70776 27.5406 7.74361V28.1247C27.5406 28.2526 27.5924 28.3753 27.6847 28.4658C27.7769 28.5563 27.902 28.6071 28.0324 28.6071H29.7857C29.9161 28.6071 30.0412 28.5563 30.1334 28.4658C30.2256 28.3753 30.2775 28.2526 30.2775 28.1247V7.74361C30.2763 7.72465 30.2791 7.70566 30.2858 7.68782C30.2924 7.66999 30.3028 7.65371 30.3162 7.64C30.3296 7.62629 30.3457 7.61545 30.3636 7.60816C30.3815 7.60088 30.4007 7.59731 30.4201 7.59768H31.8156C31.853 7.598 31.8887 7.61271 31.9152 7.63865C31.9416 7.66459 31.9566 7.69969 31.9569 7.73637V8.20067C31.9676 15.1954 31.9819 22.1901 32 29.1848C32 29.7697 31.7246 29.9964 31.2057 30.0012C29.9357 30.0133 28.0508 30.0217 26.7796 29.9819C25.9337 29.9554 25.796 29.7793 25.796 28.9761C25.796 22.0618 25.7988 15.1475 25.8046 8.23323V7.75084C25.8037 7.73182 25.8069 7.71283 25.8138 7.69505C25.8208 7.67728 25.8314 7.6611 25.845 7.64752C25.8586 7.63395 25.8749 7.62326 25.8929 7.61614C25.9109 7.60902 25.9302 7.60561 25.9496 7.60612Z" fill="black"/>
<path d="M0.24588 17.1129H22.7382C22.7757 17.1129 22.8117 17.1275 22.8382 17.1535C22.8647 17.1795 22.8796 17.2148 22.8796 17.2516V18.6204C22.8794 18.6386 22.8756 18.6566 22.8684 18.6734C22.8611 18.6901 22.8506 18.7053 22.8373 18.7181C22.8241 18.7309 22.8084 18.741 22.7912 18.7478C22.774 18.7546 22.7556 18.758 22.737 18.7579H22.2747C15.1436 18.7687 7.37694 18.7748 0.248339 18.8013C0.00244093 18.8013 0.00244093 18.8013 0.00244093 18.618V17.5652C-1.80588e-05 17.1129 -1.80635e-05 17.1129 0.24588 17.1129Z" fill="url(#paint1_radial_1_234)"/>
</g>
<defs>
<radialGradient id="paint0_radial_1_234" cx="0" cy="0" r="1" gradientUnits="userSpaceOnUse" gradientTransform="translate(28.9005 3.04028) scale(3.09955 3.04028)">
<stop offset="0.02" stop-color="#74C399"/>
<stop offset="0.43" stop-color="#5BBEAC"/>
<stop offset="0.66" stop-color="#0B8CCD"/>
<stop offset="1" stop-color="#193E97"/>
</radialGradient>
<radialGradient id="paint1_radial_1_234" cx="0" cy="0" r="1" gradientUnits="userSpaceOnUse" gradientTransform="translate(11.4392 17.9571) scale(8.11219 7.95707)">
<stop offset="0.02" stop-color="#74C399"/>
<stop offset="0.43" stop-color="#5BBEAC"/>
<stop offset="0.66" stop-color="#0B8CCD"/>
<stop offset="1" stop-color="#193E97"/>
</radialGradient>
<clipPath id="clip0_1_234">
<rect width="32" height="30" fill="white"/>
</clipPath>
</defs>
</svg>
