<svg width="215" height="107" viewBox="0 0 215 107" fill="none" xmlns="http://www.w3.org/2000/svg">
<path d="M29.368 65.816L30.172 65.42C30.976 66.296 31.744 67.484 32.092 68.3L31.228 68.768C30.916 67.94 30.136 66.704 29.368 65.816ZM25.42 72.728C26.644 72.248 28.564 71.432 30.364 70.64L30.568 71.516C28.9 72.284 27.076 73.088 25.744 73.664L25.42 72.728ZM32.62 71.144L33.316 70.556C34.456 71.684 35.944 73.244 36.652 74.228L35.884 74.936C35.212 73.94 33.772 72.32 32.62 71.144ZM34.288 64.544L35.26 64.64C34.648 70.184 33.244 73.244 29.044 74.996C28.912 74.804 28.552 74.408 28.324 74.216C32.476 72.704 33.748 69.764 34.288 64.544ZM26.884 64.58L27.808 64.544L28.012 72.476L27.088 72.512L26.884 64.58ZM39.544 64.916H40.42V74.936H39.544V64.916ZM37.516 67.304H42.196V68.156H37.516V67.304ZM39.592 67.628L40.156 67.868C39.676 69.56 38.716 71.66 37.792 72.776C37.708 72.524 37.492 72.152 37.336 71.948C38.2 70.988 39.16 69.116 39.592 67.628ZM41.464 64.088L42.016 64.82C40.912 65.252 39.256 65.576 37.888 65.768C37.84 65.564 37.72 65.264 37.624 65.06C38.98 64.844 40.552 64.496 41.464 64.088ZM40.372 68.312C40.684 68.636 41.836 70.088 42.1 70.448L41.536 71.156C41.248 70.58 40.312 69.152 39.952 68.684L40.372 68.312ZM46.144 63.92H47.032V74.948H46.144V63.92ZM42.052 71.732L48.436 70.7L48.58 71.54L42.184 72.584L42.052 71.732ZM43.024 65.288L43.6 64.76C44.32 65.216 45.172 65.9 45.58 66.404L44.956 66.992C44.572 66.488 43.732 65.768 43.024 65.288ZM42.544 68.408L43.108 67.88C43.888 68.348 44.836 69.068 45.28 69.584L44.68 70.184C44.236 69.656 43.324 68.9 42.544 68.408ZM53.524 65.816H60.136V66.656H53.524V65.816ZM53.776 68.456H59.068V69.284H53.776V68.456ZM56.356 63.92H57.244V68.924H56.356V63.92ZM54.94 69.068C55.84 71.588 57.772 73.46 60.58 74.204C60.376 74.384 60.124 74.744 59.992 74.972C57.112 74.12 55.168 72.128 54.124 69.308L54.94 69.068ZM58.996 68.456H59.164L59.332 68.42L59.896 68.672C58.876 72.116 56.26 74.072 53.32 74.96C53.236 74.72 53.008 74.336 52.84 74.144C55.588 73.436 58.12 71.576 58.996 68.612V68.456ZM49.432 70.28C50.44 70.028 51.928 69.62 53.356 69.212L53.464 70.028C52.156 70.424 50.764 70.832 49.696 71.144L49.432 70.28ZM49.588 66.344H53.356V67.196H49.588V66.344ZM51.136 63.932H52.024V73.88C52.024 74.384 51.904 74.636 51.58 74.768C51.268 74.912 50.764 74.936 49.936 74.936C49.912 74.708 49.78 74.348 49.66 74.108C50.224 74.12 50.752 74.12 50.908 74.108C51.064 74.108 51.136 74.048 51.136 73.88V63.932ZM62.164 66.308H71.08V67.184H62.164V66.308ZM66.508 63.944H67.432V66.68H66.508V63.944ZM70.792 66.308H70.996L71.176 66.248L71.848 66.68C70.36 69.116 67.54 71.936 65.056 73.472C64.912 73.28 64.624 73.004 64.408 72.848C66.82 71.42 69.568 68.588 70.792 66.524V66.308ZM64.048 71.396C64.936 73.484 66.904 73.88 69.448 73.88C69.856 73.88 71.992 73.88 72.544 73.868C72.412 74.084 72.256 74.504 72.208 74.756H69.4C66.424 74.756 64.408 74.24 63.28 71.72L64.048 71.396ZM62.236 74.948L61.372 74.432C62.224 73.364 63.136 71.648 63.604 70.364L64.48 70.7C64.024 71.816 63.16 73.58 62.236 74.948ZM80.044 67.976H84.508V68.816H80.044V67.976ZM73.732 65.18H79.024V65.948H73.732V65.18ZM73.6 69.944H79.084V70.724H73.6V69.944ZM73.564 67.928H79.168V68.696H73.564V67.928ZM82.276 68.312H83.152V74.9H82.276V68.312ZM75.952 63.968H76.828V65.576H75.952V63.968ZM75.952 68.552H76.828V74.948H75.952V68.552ZM79.612 64.904L80.716 65.24C80.704 65.336 80.632 65.384 80.464 65.408V69.116C80.464 70.916 80.248 73.352 78.556 75.02C78.448 74.816 78.124 74.516 77.908 74.396C79.444 72.884 79.612 70.808 79.612 69.104V64.904ZM83.632 64.064L84.352 64.724C83.224 65.228 81.544 65.636 80.104 65.888C80.056 65.696 79.936 65.384 79.828 65.204C81.172 64.916 82.756 64.496 83.632 64.064ZM76.744 70.952C77.128 71.216 78.436 72.284 78.736 72.56L78.208 73.232C77.824 72.788 76.696 71.732 76.252 71.36L76.744 70.952ZM74.452 66.164L75.16 66.008C75.412 66.536 75.616 67.244 75.676 67.7L74.92 67.904C74.884 67.436 74.692 66.716 74.452 66.164ZM77.524 65.984L78.34 66.164C78.112 66.764 77.86 67.436 77.644 67.88L76.924 67.712C77.14 67.232 77.392 66.488 77.524 65.984ZM75.964 70.34L76.612 70.592C76 71.924 74.896 73.34 73.936 74.084C73.792 73.88 73.528 73.592 73.324 73.448C74.296 72.812 75.388 71.516 75.964 70.34ZM86.884 75.284L86.608 74.66C87.592 74.252 88.132 73.64 88.132 72.74L87.904 71.72L88.552 72.632C88.384 72.848 88.144 72.908 87.916 72.908C87.424 72.908 87.016 72.62 87.016 72.044C87.016 71.48 87.448 71.18 87.928 71.18C88.6 71.18 88.96 71.732 88.96 72.572C88.96 73.868 88.144 74.852 86.884 75.284ZM103.204 70.436H104.092V73.412C104.092 73.772 104.2 73.832 104.8 73.832C105.076 73.832 106.444 73.832 106.816 73.832C107.38 73.832 107.476 73.604 107.524 71.996C107.74 72.152 108.112 72.284 108.352 72.344C108.244 74.216 107.98 74.672 106.876 74.672C106.612 74.672 104.98 74.672 104.728 74.672C103.552 74.672 103.204 74.42 103.204 73.412V70.436ZM102.412 66.62H103.36C103.228 71.18 102.916 73.784 98.068 74.972C97.984 74.744 97.732 74.384 97.552 74.192C102.148 73.16 102.316 70.868 102.412 66.62ZM99.124 64.592H106.828V71.456H105.868V65.504H100.06V71.456H99.124V64.592ZM109.636 66.86H112.888V67.688H109.636V66.86ZM110.896 64.064H111.748V72.104H110.896V64.064ZM109.492 72.452C110.356 72.176 111.652 71.696 112.912 71.216L113.068 72.032C111.928 72.5 110.728 72.968 109.78 73.352L109.492 72.452ZM113.728 65.768H120.424V66.596H113.728V65.768ZM113.884 68.216H116.104V68.984H113.884V68.216ZM113.392 65.768H114.232V69.512C114.232 71.216 114.028 73.508 112.732 74.996C112.6 74.828 112.264 74.552 112.072 74.444C113.272 73.04 113.392 71.06 113.392 69.5V65.768ZM115.756 68.216H116.536C116.536 68.216 116.536 68.468 116.524 68.576C116.488 71.336 116.44 72.32 116.212 72.62C116.056 72.836 115.888 72.92 115.6 72.944C115.36 72.968 114.928 72.98 114.508 72.956C114.484 72.716 114.412 72.392 114.292 72.188C114.712 72.224 115.084 72.224 115.228 72.224C115.384 72.224 115.468 72.2 115.54 72.104C115.672 71.912 115.72 71.012 115.756 68.36V68.216ZM117.004 63.92H117.868C117.82 69.56 118.528 73.988 119.56 73.988C119.8 73.988 119.92 73.4 119.968 72.008C120.136 72.2 120.424 72.392 120.64 72.476C120.508 74.276 120.244 74.84 119.452 74.84C117.592 74.84 117.052 69.728 117.004 63.92ZM118.096 64.388L118.708 63.992C119.236 64.388 119.86 64.952 120.148 65.348L119.5 65.792C119.224 65.396 118.624 64.808 118.096 64.388ZM119.392 67.928L120.22 68.084C119.44 71.168 118.024 73.46 115.888 74.924C115.756 74.756 115.432 74.432 115.252 74.3C117.376 72.992 118.708 70.796 119.392 67.928ZM126.484 63.872H127.432V66.116H126.484V63.872ZM126.496 66.404H127.42V74.996H126.496V66.404ZM121.6 65.588H132.412V66.464H121.6V65.588ZM122.836 68.108H130.72V68.984H123.736V73.472H122.836V68.108ZM130.372 68.108H131.296V72.332C131.296 72.848 131.176 73.124 130.78 73.28C130.36 73.424 129.688 73.436 128.656 73.436C128.62 73.16 128.476 72.8 128.344 72.548C129.16 72.572 129.892 72.572 130.096 72.56C130.312 72.548 130.372 72.5 130.372 72.332V68.108ZM134.668 68.108H138.46V68.984H134.668V68.108ZM134.668 71.9H138.532V72.764H134.668V71.9ZM143.152 64.772H144.052V71.936C144.052 72.452 143.944 72.764 143.56 72.932C143.188 73.1 142.552 73.112 141.664 73.112C141.616 72.848 141.448 72.404 141.304 72.152C142.036 72.176 142.696 72.164 142.9 72.164C143.092 72.164 143.152 72.104 143.152 71.912V64.772ZM134.236 65L135.136 65.348V73.796H134.236V65ZM137.908 63.944L138.676 64.688C137.584 65.204 136.084 65.696 134.776 66.056C134.728 65.852 134.584 65.516 134.464 65.312C135.688 64.952 137.08 64.4 137.908 63.944ZM139.276 64.772H143.644V65.66H140.176V74.912H139.276V64.772ZM148.936 69.98L149.524 69.524C152.392 71.156 152.656 73.856 151.42 74.66C151.024 74.912 150.712 74.996 150.22 74.996C149.956 74.996 149.596 74.984 149.236 74.972C149.224 74.744 149.14 74.396 148.984 74.156C149.392 74.204 149.8 74.204 150.064 74.204C150.352 74.204 150.616 74.18 150.844 74.012C151.66 73.472 151.396 71.432 148.936 69.98ZM150.172 70.376L150.808 70.712C149.752 71.564 147.844 72.38 146.356 72.752C146.236 72.56 146.008 72.272 145.852 72.116C147.328 71.804 149.212 71.108 150.172 70.376ZM150.976 71.468L151.624 71.828C150.34 73.052 148.024 74.18 146.176 74.72C146.056 74.528 145.816 74.216 145.636 74.036C147.52 73.58 149.8 72.548 150.976 71.468ZM148.66 64.724H152.2V65.444H148.66V64.724ZM150.868 68.576L151.564 68.912C150.244 69.848 148.06 70.604 146.272 71.048C146.176 70.892 145.936 70.544 145.792 70.388C147.58 70.028 149.68 69.368 150.868 68.576ZM151.9 68.732C152.608 71.18 154.144 73.088 156.496 73.856C156.304 74.024 156.04 74.36 155.92 74.6C153.472 73.676 151.936 71.66 151.156 68.912L151.9 68.732ZM155.38 69.248L156.112 69.788C155.188 70.436 153.94 71.192 152.992 71.636L152.428 71.168C153.352 70.7 154.648 69.872 155.38 69.248ZM147.76 67.04V68.42H154.324V67.04H147.76ZM146.908 66.344H155.2V69.116H146.908V66.344ZM148.984 63.884L149.92 64.076C149.08 65.276 147.868 66.536 146.212 67.544C146.08 67.34 145.792 67.052 145.6 66.92C147.172 66.056 148.348 64.868 148.984 63.884ZM150.52 66.68H151.408V68.816H150.52V66.68ZM151.864 64.724H152.056L152.2 64.688L152.812 65.084C152.428 65.756 151.792 66.524 151.264 66.992C151.096 66.872 150.808 66.68 150.604 66.572C151.096 66.14 151.624 65.396 151.864 64.904V64.724ZM158.164 66.308H167.08V67.184H158.164V66.308ZM162.508 63.944H163.432V66.68H162.508V63.944ZM166.792 66.308H166.996L167.176 66.248L167.848 66.68C166.36 69.116 163.54 71.936 161.056 73.472C160.912 73.28 160.624 73.004 160.408 72.848C162.82 71.42 165.568 68.588 166.792 66.524V66.308ZM160.048 71.396C160.936 73.484 162.904 73.88 165.448 73.88C165.856 73.88 167.992 73.88 168.544 73.868C168.412 74.084 168.256 74.504 168.208 74.756H165.4C162.424 74.756 160.408 74.24 159.28 71.72L160.048 71.396ZM158.236 74.948L157.372 74.432C158.224 73.364 159.136 71.648 159.604 70.364L160.48 70.7C160.024 71.816 159.16 73.58 158.236 74.948ZM170.164 65.6H179.824V66.416H170.164V65.6ZM170.764 67.388H179.296V68.168H170.764V67.388ZM169.684 69.188H180.304V70.004H169.684V69.188ZM169.6 71.108H180.424V71.912H169.6V71.108ZM174.508 66.056H175.432V69.776H174.508V66.056ZM171.7 64.232L172.48 63.908C172.924 64.352 173.344 64.976 173.536 65.42L172.696 65.804C172.54 65.348 172.132 64.688 171.7 64.232ZM177.34 63.908L178.264 64.196C177.88 64.748 177.424 65.324 177.076 65.72L176.284 65.444C176.644 65.036 177.088 64.364 177.34 63.908ZM174.46 69.848H175.408C175.084 72.656 174.208 74.264 169.9 74.96C169.828 74.732 169.612 74.36 169.444 74.168C173.5 73.58 174.196 72.248 174.46 69.848ZM175.672 71.348C176.356 73.076 177.976 73.904 180.604 74.156C180.4 74.348 180.16 74.732 180.052 74.984C177.28 74.624 175.648 73.616 174.844 71.516L175.672 71.348Z" fill="#597EF7"/>
<path d="M10.3314 50L14.0934 21.2H21.5814L25.3434 50H24.3984L20.7714 21.956H14.9034L11.2764 50H10.3314ZM14.0754 50L15.0294 42.503H20.6454L21.5994 50H20.6364L19.8984 43.25H15.7764L15.0384 50H14.0754ZM12.1854 50L15.4614 22.721H20.2134L23.4894 50H22.5264L21.5364 41.756H14.1384L13.1484 50H12.1854ZM14.2014 41.009H21.4464L20.5374 32.828L19.4034 23.477H16.2714L15.1014 32.828L14.2014 41.009ZM15.2544 40.262L16.0014 32.828L16.9014 24.179H18.7734L19.7094 32.828L20.4294 40.262H15.2544ZM16.2174 39.515H19.4664L18.8454 32.828L18.0894 24.935H17.5854L16.8294 32.828L16.2174 39.515ZM29.7214 50V21.2H36.1474C37.6354 21.2 38.8864 21.395 39.9004 21.785C40.9204 22.169 41.7004 22.829 42.2404 23.765C42.7804 24.695 43.0804 25.982 43.1404 27.626C43.1824 28.802 43.2004 29.891 43.1944 30.893C43.1944 31.889 43.1764 32.93 43.1404 34.016C43.0864 35.42 42.8284 36.524 42.3664 37.328C41.9044 38.132 41.1754 38.765 40.1794 39.227L43.2664 50H42.2944L39.0364 38.75C40.1164 38.45 40.9024 37.931 41.3944 37.193C41.8864 36.449 42.1564 35.381 42.2044 33.989C42.2404 32.945 42.2584 31.919 42.2584 30.911C42.2644 29.903 42.2464 28.82 42.2044 27.662C42.1564 26.192 41.8924 25.049 41.4124 24.233C40.9324 23.411 40.2514 22.835 39.3694 22.505C38.4874 22.175 37.4134 22.01 36.1474 22.01H30.6484V50H29.7214ZM33.4384 50V39.029H35.0854C35.2774 39.029 35.4664 39.029 35.6524 39.029C35.8444 39.029 36.0304 39.029 36.2104 39.029L39.3694 50H38.3974L35.5264 39.839C35.4604 39.839 35.3914 39.839 35.3194 39.839C35.2534 39.839 35.1874 39.839 35.1214 39.839H34.3654V50H33.4384ZM31.5754 50V22.82H36.1474C37.2034 22.82 38.1034 22.961 38.8474 23.243C39.5974 23.519 40.1764 24.011 40.5844 24.719C40.9984 25.427 41.2294 26.417 41.2774 27.689C41.3134 28.781 41.3344 29.84 41.3404 30.866C41.3464 31.886 41.3254 32.915 41.2774 33.953C41.2234 35.237 40.9294 36.203 40.3954 36.851C39.8614 37.493 39.0064 37.913 37.8304 38.111L41.3224 50H40.3504L36.8854 38.201C36.7774 38.207 36.6604 38.213 36.5344 38.219C36.4144 38.219 36.2824 38.219 36.1384 38.219H32.5114V50H31.5754ZM32.5114 37.418H36.1384C37.4464 37.418 38.4604 37.181 39.1804 36.707C39.9064 36.227 40.2964 35.3 40.3504 33.926C40.3864 32.876 40.4044 31.859 40.4044 30.875C40.4104 29.885 40.3924 28.832 40.3504 27.716C40.2904 26.102 39.8974 25.016 39.1714 24.458C38.4454 23.9 37.4374 23.621 36.1474 23.621H32.5114V37.418ZM33.4384 36.608V24.431H36.1474C37.1674 24.431 37.9564 24.659 38.5144 25.115C39.0724 25.571 39.3754 26.45 39.4234 27.752C39.4594 28.796 39.4774 29.813 39.4774 30.803C39.4834 31.793 39.4654 32.822 39.4234 33.89C39.3814 34.958 39.0814 35.678 38.5234 36.05C37.9654 36.422 37.1704 36.608 36.1384 36.608H33.4384ZM34.3654 35.798H36.1384C36.8944 35.798 37.4704 35.666 37.8664 35.402C38.2624 35.132 38.4694 34.619 38.4874 33.863C38.5234 32.627 38.5384 31.535 38.5324 30.587C38.5324 29.639 38.5174 28.703 38.4874 27.779C38.4634 26.831 38.2624 26.171 37.8844 25.799C37.5124 25.427 36.9334 25.241 36.1474 25.241H34.3654V35.798ZM54.5147 50.333C52.0907 50.333 50.3477 49.823 49.2857 48.803C48.2237 47.777 47.6747 46.085 47.6387 43.727C47.6087 41.723 47.5907 39.824 47.5847 38.03C47.5787 36.236 47.5787 34.475 47.5847 32.747C47.5967 31.019 47.6147 29.255 47.6387 27.455C47.6747 25.103 48.2207 23.42 49.2767 22.406C50.3327 21.386 52.0637 20.876 54.4697 20.876C56.8097 20.876 58.5107 21.38 59.5727 22.388C60.6407 23.396 61.2137 25.085 61.2917 27.455C61.3037 27.725 61.3097 28.037 61.3097 28.391C61.3097 28.739 61.3067 29.111 61.3007 29.507C61.3007 29.897 61.2977 30.29 61.2917 30.686C61.2857 31.082 61.2767 31.454 61.2647 31.802H60.3287C60.3467 31.34 60.3587 30.842 60.3647 30.308C60.3767 29.768 60.3827 29.249 60.3827 28.751C60.3827 28.247 60.3767 27.821 60.3647 27.473C60.2927 25.379 59.7977 23.882 58.8797 22.982C57.9677 22.076 56.4977 21.623 54.4697 21.623C52.3817 21.623 50.8817 22.076 49.9697 22.982C49.0637 23.888 48.5957 25.385 48.5657 27.473C48.5417 29.309 48.5237 31.136 48.5117 32.954C48.5057 34.772 48.5057 36.578 48.5117 38.372C48.5237 40.166 48.5417 41.945 48.5657 43.709C48.5957 45.809 49.0697 47.315 49.9877 48.227C50.9117 49.133 52.4207 49.586 54.5147 49.586C56.5667 49.586 58.0577 49.133 58.9877 48.227C59.9177 47.321 60.4247 45.815 60.5087 43.709C60.5267 43.109 60.5357 42.425 60.5357 41.657C60.5417 40.883 60.5297 40.097 60.4997 39.299H61.4267C61.4507 40.025 61.4627 40.799 61.4627 41.621C61.4687 42.437 61.4597 43.139 61.4357 43.727C61.3517 46.085 60.7727 47.777 59.6987 48.803C58.6247 49.823 56.8967 50.333 54.5147 50.333ZM54.5147 48.839C52.7507 48.839 51.4787 48.443 50.6987 47.651C49.9247 46.859 49.5257 45.542 49.5017 43.7C49.4717 41.888 49.4507 40.1 49.4387 38.336C49.4327 36.572 49.4327 34.796 49.4387 33.008C49.4507 31.214 49.4717 29.369 49.5017 27.473C49.5257 25.649 49.9217 24.344 50.6897 23.558C51.4637 22.766 52.7237 22.37 54.4697 22.37C56.1677 22.37 57.4007 22.766 58.1687 23.558C58.9427 24.344 59.3627 25.652 59.4287 27.482C59.4407 27.746 59.4467 28.061 59.4467 28.427C59.4527 28.793 59.4527 29.18 59.4467 29.588C59.4407 29.99 59.4347 30.383 59.4287 30.767C59.4227 31.151 59.4137 31.496 59.4017 31.802H58.4747C58.4987 31.178 58.5107 30.599 58.5107 30.065C58.5167 29.525 58.5197 29.039 58.5197 28.607C58.5197 28.175 58.5137 27.815 58.5017 27.527C58.4477 25.967 58.1087 24.842 57.4847 24.152C56.8667 23.462 55.8617 23.117 54.4697 23.117C53.0417 23.117 52.0157 23.453 51.3917 24.125C50.7737 24.797 50.4527 25.913 50.4287 27.473C50.4047 29.261 50.3867 31.043 50.3747 32.819C50.3627 34.589 50.3627 36.38 50.3747 38.192C50.3867 39.998 50.4047 41.849 50.4287 43.745C50.4527 45.317 50.7827 46.436 51.4187 47.102C52.0547 47.762 53.0807 48.092 54.4967 48.092C55.9547 48.092 56.9927 47.741 57.6107 47.039C58.2347 46.331 58.5797 45.203 58.6457 43.655C58.6637 43.283 58.6727 42.863 58.6727 42.395C58.6787 41.927 58.6787 41.432 58.6727 40.91C58.6727 40.382 58.6637 39.845 58.6457 39.299H59.5727C59.5907 39.785 59.5997 40.298 59.5997 40.838C59.6057 41.372 59.6057 41.888 59.5997 42.386C59.5997 42.884 59.5907 43.328 59.5727 43.718C59.5067 45.554 59.0777 46.868 58.2857 47.66C57.4937 48.446 56.2367 48.839 54.5147 48.839ZM54.4967 47.345C53.4047 47.345 52.6127 47.072 52.1207 46.526C51.6287 45.974 51.3737 45.044 51.3557 43.736C51.3317 41.954 51.3137 40.175 51.3017 38.399C51.2957 36.623 51.2957 34.832 51.3017 33.026C51.3137 31.214 51.3317 29.366 51.3557 27.482C51.3737 26.18 51.6227 25.253 52.1027 24.701C52.5827 24.143 53.3717 23.864 54.4697 23.864C55.5197 23.864 56.2847 24.149 56.7647 24.719C57.2507 25.283 57.5207 26.216 57.5747 27.518C57.5867 27.806 57.5927 28.166 57.5927 28.598C57.5927 29.03 57.5897 29.516 57.5837 30.056C57.5777 30.596 57.5657 31.178 57.5477 31.802H56.6117C56.6357 31.178 56.6507 30.593 56.6567 30.047C56.6627 29.495 56.6657 29.009 56.6657 28.589C56.6657 28.169 56.6597 27.836 56.6477 27.59C56.6057 26.582 56.4257 25.835 56.1077 25.349C55.7897 24.857 55.2437 24.611 54.4697 24.611C53.6957 24.611 53.1407 24.833 52.8047 25.277C52.4747 25.715 52.3007 26.456 52.2827 27.5C52.2587 29.318 52.2407 31.109 52.2287 32.873C52.2167 34.631 52.2167 36.404 52.2287 38.192C52.2407 39.974 52.2587 41.816 52.2827 43.718C52.3007 44.762 52.4807 45.503 52.8227 45.941C53.1647 46.379 53.7227 46.598 54.4967 46.598C55.2587 46.598 55.8167 46.373 56.1707 45.923C56.5307 45.467 56.7377 44.705 56.7917 43.637C56.8097 43.157 56.8187 42.506 56.8187 41.684C56.8187 40.856 56.8067 40.061 56.7827 39.299H57.7097C57.7397 40.037 57.7547 40.802 57.7547 41.594C57.7547 42.386 57.7427 43.061 57.7187 43.619C57.6647 44.957 57.3887 45.914 56.8907 46.49C56.3927 47.06 55.5947 47.345 54.4967 47.345ZM68.353 50V21.2H69.289V34.988H76.984V21.2H77.911V50H76.984V35.789H69.289V50H68.353ZM70.234 50V36.599H76.057V50H75.13V37.409H71.143V50H70.234ZM66.499 50V21.2H67.426V50H66.499ZM78.847 50V21.2H79.774V50H78.847ZM70.216 34.178V21.2H71.143V33.368H75.13V21.2H76.057V34.178H70.216ZM88.9388 50V21.2H89.8658V50H88.9388ZM85.2218 50V21.2H86.1488V50H85.2218ZM87.0758 50V21.2H88.0118V50H87.0758ZM102.693 50.333C100.155 50.333 98.3224 49.823 97.1944 48.803C96.0664 47.783 95.4724 46.1 95.4124 43.754C95.4004 43.13 95.3944 42.617 95.3944 42.215C95.3944 41.807 95.4034 41.42 95.4214 41.054C95.4394 40.682 95.4664 40.238 95.5024 39.722C95.5624 38.792 95.8594 37.826 96.3934 36.824C96.9334 35.816 97.5904 34.961 98.3644 34.259C98.0104 33.485 97.6954 32.723 97.4194 31.973C97.1494 31.223 96.9304 30.488 96.7624 29.768C96.5944 29.042 96.4894 28.343 96.4474 27.671C96.2674 25.463 96.6904 23.777 97.7164 22.613C98.7484 21.449 100.326 20.867 102.45 20.867C104.586 20.867 106.158 21.431 107.166 22.559C108.174 23.687 108.561 25.319 108.327 27.455C108.267 28.139 108.123 28.811 107.895 29.471C107.667 30.131 107.358 30.782 106.968 31.424C106.584 32.066 106.125 32.705 105.591 33.341C105.057 33.977 104.454 34.619 103.782 35.267C104.082 35.927 104.451 36.641 104.889 37.409C105.327 38.177 105.756 38.888 106.176 39.542L106.23 39.515C106.23 39.113 106.209 38.666 106.167 38.174C106.125 37.676 106.074 37.184 106.014 36.698C105.954 36.212 105.885 35.783 105.807 35.411H106.608C106.692 36.065 106.758 36.719 106.806 37.373C106.86 38.021 106.896 38.681 106.914 39.353C106.938 40.025 106.944 40.733 106.932 41.477L106.887 41.495C106.335 40.781 105.807 40.058 105.303 39.326C104.805 38.594 104.337 37.871 103.899 37.157C103.461 36.443 103.059 35.756 102.693 35.096C103.467 34.388 104.145 33.719 104.727 33.089C105.309 32.453 105.798 31.832 106.194 31.226C106.59 30.614 106.899 29.993 107.121 29.363C107.343 28.733 107.487 28.064 107.553 27.356C107.751 25.49 107.415 24.068 106.545 23.09C105.675 22.106 104.31 21.614 102.45 21.614C100.608 21.614 99.2434 22.124 98.3554 23.144C97.4734 24.164 97.1044 25.646 97.2484 27.59C97.2784 28.052 97.3474 28.544 97.4554 29.066C97.5694 29.588 97.7194 30.137 97.9054 30.713C98.0914 31.283 98.3164 31.88 98.5804 32.504C98.8444 33.128 99.1414 33.77 99.4714 34.43C98.8654 34.874 98.3374 35.393 97.8874 35.987C97.4434 36.575 97.0924 37.196 96.8344 37.85C96.5824 38.498 96.4384 39.14 96.4024 39.776C96.3604 40.28 96.3304 40.712 96.3124 41.072C96.2944 41.432 96.2854 41.81 96.2854 42.206C96.2854 42.602 96.2914 43.109 96.3034 43.727C96.3574 45.821 96.8794 47.321 97.8694 48.227C98.8594 49.133 100.467 49.586 102.693 49.586C103.689 49.586 104.535 49.475 105.231 49.253C105.927 49.031 106.5 48.689 106.95 48.227C107.406 47.759 107.769 47.159 108.039 46.427L108.093 46.409C108.375 46.745 108.66 47.093 108.948 47.453C109.236 47.807 109.527 48.161 109.821 48.515C110.121 48.863 110.424 49.205 110.73 49.541L110.145 50.108C109.815 49.736 109.482 49.352 109.146 48.956C108.81 48.554 108.48 48.164 108.156 47.786L108.102 47.804C107.634 48.644 106.968 49.277 106.104 49.703C105.24 50.123 104.103 50.333 102.693 50.333ZM102.693 48.839C100.779 48.839 99.3964 48.44 98.5444 47.642C97.6924 46.844 97.2454 45.533 97.2034 43.709C97.1914 43.079 97.1854 42.569 97.1854 42.179C97.1854 41.789 97.1944 41.42 97.2124 41.072C97.2304 40.724 97.2574 40.304 97.2934 39.812C97.3594 38.756 97.6654 37.82 98.2114 37.004C98.7574 36.188 99.5314 35.417 100.533 34.691C100.041 33.755 99.6154 32.861 99.2554 32.009C98.9014 31.151 98.6224 30.344 98.4184 29.588C98.2204 28.832 98.1004 28.136 98.0584 27.5C97.9324 25.826 98.2444 24.551 98.9944 23.675C99.7444 22.799 100.896 22.361 102.45 22.361C104.022 22.361 105.177 22.778 105.915 23.612C106.653 24.446 106.938 25.655 106.77 27.239C106.704 27.953 106.56 28.625 106.338 29.255C106.116 29.879 105.801 30.491 105.393 31.091C104.985 31.691 104.475 32.306 103.863 32.936C103.257 33.566 102.531 34.244 101.685 34.97C102.183 35.822 102.729 36.707 103.323 37.625C103.917 38.537 104.559 39.47 105.249 40.424C105.945 41.378 106.686 42.341 107.472 43.313C107.562 42.629 107.607 41.81 107.607 40.856C107.613 39.896 107.592 38.93 107.544 37.958C107.502 36.986 107.439 36.137 107.355 35.411H108.12C108.192 36.065 108.249 36.77 108.291 37.526C108.333 38.282 108.354 39.047 108.354 39.821C108.36 40.589 108.342 41.327 108.3 42.035C108.258 42.743 108.189 43.376 108.093 43.934C108.489 44.426 108.894 44.921 109.308 45.419C109.728 45.917 110.154 46.415 110.586 46.913C111.018 47.405 111.456 47.897 111.9 48.389L111.315 48.956C110.907 48.524 110.505 48.089 110.109 47.651C109.713 47.213 109.326 46.772 108.948 46.328C108.57 45.878 108.195 45.437 107.823 45.005C107.601 45.893 107.286 46.619 106.878 47.183C106.47 47.747 105.93 48.164 105.258 48.434C104.586 48.704 103.731 48.839 102.693 48.839ZM102.693 48.083C103.653 48.083 104.43 47.954 105.024 47.696C105.624 47.432 106.095 47.024 106.437 46.472C106.779 45.92 107.046 45.209 107.238 44.339C106.374 43.295 105.567 42.263 104.817 41.243C104.073 40.223 103.38 39.221 102.738 38.237C102.102 37.247 101.523 36.293 101.001 35.375C100.059 36.089 99.3694 36.788 98.9314 37.472C98.4994 38.15 98.2504 38.948 98.1844 39.866C98.1484 40.34 98.1214 40.745 98.1034 41.081C98.0914 41.417 98.0854 41.78 98.0854 42.17C98.0854 42.554 98.0884 43.058 98.0944 43.682C98.1364 45.254 98.5114 46.382 99.2194 47.066C99.9334 47.744 101.091 48.083 102.693 48.083ZM102.693 47.336C101.403 47.336 100.47 47.051 99.8944 46.481C99.3244 45.911 99.0244 44.969 98.9944 43.655C98.9824 43.043 98.9764 42.548 98.9764 42.17C98.9764 41.792 98.9854 41.438 99.0034 41.108C99.0214 40.778 99.0484 40.379 99.0844 39.911C99.1324 39.197 99.3034 38.573 99.5974 38.039C99.8974 37.499 100.287 37.034 100.767 36.644C101.139 37.274 101.535 37.913 101.955 38.561C102.375 39.209 102.819 39.866 103.287 40.532C103.761 41.198 104.256 41.873 104.772 42.557C105.288 43.235 105.825 43.916 106.383 44.6C106.215 45.236 105.984 45.758 105.69 46.166C105.402 46.568 105.018 46.865 104.538 47.057C104.058 47.243 103.443 47.336 102.693 47.336ZM102.693 46.589C103.239 46.589 103.689 46.526 104.043 46.4C104.397 46.274 104.685 46.079 104.907 45.815C105.129 45.551 105.315 45.215 105.465 44.807C104.853 44.057 104.262 43.301 103.692 42.539C103.128 41.771 102.585 41.006 102.063 40.244C101.547 39.476 101.055 38.72 100.587 37.976C100.389 38.186 100.233 38.489 100.119 38.885C100.011 39.275 99.9424 39.635 99.9124 39.965C99.8824 40.421 99.8584 40.811 99.8404 41.135C99.8224 41.459 99.8134 41.804 99.8134 42.17C99.8134 42.536 99.8194 43.022 99.8314 43.628C99.8614 44.69 100.101 45.449 100.551 45.905C101.001 46.361 101.715 46.589 102.693 46.589ZM101.244 34.16C102.036 33.5 102.72 32.885 103.296 32.315C103.872 31.739 104.346 31.178 104.718 30.632C105.096 30.086 105.387 29.531 105.591 28.967C105.801 28.397 105.936 27.785 105.996 27.131C106.128 25.811 105.894 24.812 105.294 24.134C104.694 23.456 103.746 23.117 102.45 23.117C101.178 23.117 100.239 23.483 99.6334 24.215C99.0274 24.941 98.7754 26.009 98.8774 27.419C98.9194 28.295 99.1444 29.306 99.5524 30.452C99.9664 31.598 100.53 32.834 101.244 34.16ZM101.469 32.954C100.929 31.844 100.503 30.815 100.191 29.867C99.8854 28.919 99.7174 28.073 99.6874 27.329C99.6034 26.189 99.7954 25.328 100.263 24.746C100.731 24.158 101.46 23.864 102.45 23.864C103.464 23.864 104.202 24.131 104.664 24.665C105.126 25.193 105.306 25.979 105.204 27.023C105.162 27.575 105.048 28.106 104.862 28.616C104.676 29.126 104.424 29.624 104.106 30.11C103.788 30.596 103.41 31.076 102.972 31.55C102.534 32.018 102.033 32.486 101.469 32.954ZM101.766 31.712C102.168 31.322 102.528 30.932 102.846 30.542C103.164 30.152 103.434 29.762 103.656 29.372C103.878 28.982 104.055 28.583 104.187 28.175C104.319 27.767 104.4 27.347 104.43 26.915C104.502 26.147 104.373 25.571 104.043 25.187C103.713 24.803 103.182 24.611 102.45 24.611C101.748 24.611 101.232 24.833 100.902 25.277C100.572 25.715 100.437 26.372 100.497 27.248C100.521 27.836 100.641 28.508 100.857 29.264C101.079 30.014 101.382 30.83 101.766 31.712ZM112.485 47.813C112.065 47.357 111.651 46.904 111.243 46.454C110.835 45.998 110.436 45.539 110.046 45.077C109.656 44.615 109.275 44.156 108.903 43.7C109.023 42.932 109.092 42.059 109.11 41.081C109.128 40.103 109.11 39.119 109.056 38.129C109.002 37.133 108.927 36.227 108.831 35.411H109.542C109.608 36.083 109.671 36.884 109.731 37.814C109.791 38.738 109.821 39.689 109.821 40.667C109.827 41.645 109.785 42.548 109.695 43.376C110.049 43.808 110.409 44.243 110.775 44.681C111.141 45.113 111.516 45.542 111.9 45.968C112.284 46.394 112.674 46.817 113.07 47.237L112.485 47.813ZM125.152 50.333C122.728 50.333 120.985 49.823 119.923 48.803C118.861 47.777 118.312 46.085 118.276 43.727C118.246 41.723 118.228 39.824 118.222 38.03C118.216 36.236 118.216 34.475 118.222 32.747C118.234 31.019 118.252 29.255 118.276 27.455C118.312 25.103 118.858 23.42 119.914 22.406C120.97 21.386 122.701 20.876 125.107 20.876C127.447 20.876 129.148 21.38 130.21 22.388C131.278 23.396 131.851 25.085 131.929 27.455C131.941 27.725 131.947 28.037 131.947 28.391C131.947 28.739 131.944 29.111 131.938 29.507C131.938 29.897 131.935 30.29 131.929 30.686C131.923 31.082 131.914 31.454 131.902 31.802H130.966C130.984 31.34 130.996 30.842 131.002 30.308C131.014 29.768 131.02 29.249 131.02 28.751C131.02 28.247 131.014 27.821 131.002 27.473C130.93 25.379 130.435 23.882 129.517 22.982C128.605 22.076 127.135 21.623 125.107 21.623C123.019 21.623 121.519 22.076 120.607 22.982C119.701 23.888 119.233 25.385 119.203 27.473C119.179 29.309 119.161 31.136 119.149 32.954C119.143 34.772 119.143 36.578 119.149 38.372C119.161 40.166 119.179 41.945 119.203 43.709C119.233 45.809 119.707 47.315 120.625 48.227C121.549 49.133 123.058 49.586 125.152 49.586C127.204 49.586 128.695 49.133 129.625 48.227C130.555 47.321 131.062 45.815 131.146 43.709C131.164 43.109 131.173 42.425 131.173 41.657C131.179 40.883 131.167 40.097 131.137 39.299H132.064C132.088 40.025 132.1 40.799 132.1 41.621C132.106 42.437 132.097 43.139 132.073 43.727C131.989 46.085 131.41 47.777 130.336 48.803C129.262 49.823 127.534 50.333 125.152 50.333ZM125.152 48.839C123.388 48.839 122.116 48.443 121.336 47.651C120.562 46.859 120.163 45.542 120.139 43.7C120.109 41.888 120.088 40.1 120.076 38.336C120.07 36.572 120.07 34.796 120.076 33.008C120.088 31.214 120.109 29.369 120.139 27.473C120.163 25.649 120.559 24.344 121.327 23.558C122.101 22.766 123.361 22.37 125.107 22.37C126.805 22.37 128.038 22.766 128.806 23.558C129.58 24.344 130 25.652 130.066 27.482C130.078 27.746 130.084 28.061 130.084 28.427C130.09 28.793 130.09 29.18 130.084 29.588C130.078 29.99 130.072 30.383 130.066 30.767C130.06 31.151 130.051 31.496 130.039 31.802H129.112C129.136 31.178 129.148 30.599 129.148 30.065C129.154 29.525 129.157 29.039 129.157 28.607C129.157 28.175 129.151 27.815 129.139 27.527C129.085 25.967 128.746 24.842 128.122 24.152C127.504 23.462 126.499 23.117 125.107 23.117C123.679 23.117 122.653 23.453 122.029 24.125C121.411 24.797 121.09 25.913 121.066 27.473C121.042 29.261 121.024 31.043 121.012 32.819C121 34.589 121 36.38 121.012 38.192C121.024 39.998 121.042 41.849 121.066 43.745C121.09 45.317 121.42 46.436 122.056 47.102C122.692 47.762 123.718 48.092 125.134 48.092C126.592 48.092 127.63 47.741 128.248 47.039C128.872 46.331 129.217 45.203 129.283 43.655C129.301 43.283 129.31 42.863 129.31 42.395C129.316 41.927 129.316 41.432 129.31 40.91C129.31 40.382 129.301 39.845 129.283 39.299H130.21C130.228 39.785 130.237 40.298 130.237 40.838C130.243 41.372 130.243 41.888 130.237 42.386C130.237 42.884 130.228 43.328 130.21 43.718C130.144 45.554 129.715 46.868 128.923 47.66C128.131 48.446 126.874 48.839 125.152 48.839ZM125.134 47.345C124.042 47.345 123.25 47.072 122.758 46.526C122.266 45.974 122.011 45.044 121.993 43.736C121.969 41.954 121.951 40.175 121.939 38.399C121.933 36.623 121.933 34.832 121.939 33.026C121.951 31.214 121.969 29.366 121.993 27.482C122.011 26.18 122.26 25.253 122.74 24.701C123.22 24.143 124.009 23.864 125.107 23.864C126.157 23.864 126.922 24.149 127.402 24.719C127.888 25.283 128.158 26.216 128.212 27.518C128.224 27.806 128.23 28.166 128.23 28.598C128.23 29.03 128.227 29.516 128.221 30.056C128.215 30.596 128.203 31.178 128.185 31.802H127.249C127.273 31.178 127.288 30.593 127.294 30.047C127.3 29.495 127.303 29.009 127.303 28.589C127.303 28.169 127.297 27.836 127.285 27.59C127.243 26.582 127.063 25.835 126.745 25.349C126.427 24.857 125.881 24.611 125.107 24.611C124.333 24.611 123.778 24.833 123.442 25.277C123.112 25.715 122.938 26.456 122.92 27.5C122.896 29.318 122.878 31.109 122.866 32.873C122.854 34.631 122.854 36.404 122.866 38.192C122.878 39.974 122.896 41.816 122.92 43.718C122.938 44.762 123.118 45.503 123.46 45.941C123.802 46.379 124.36 46.598 125.134 46.598C125.896 46.598 126.454 46.373 126.808 45.923C127.168 45.467 127.375 44.705 127.429 43.637C127.447 43.157 127.456 42.506 127.456 41.684C127.456 40.856 127.444 40.061 127.42 39.299H128.347C128.377 40.037 128.392 40.802 128.392 41.594C128.392 42.386 128.38 43.061 128.356 43.619C128.302 44.957 128.026 45.914 127.528 46.49C127.03 47.06 126.232 47.345 125.134 47.345ZM135.942 50L139.704 21.2H147.192L150.954 50H150.009L146.382 21.956H140.514L136.887 50H135.942ZM139.686 50L140.64 42.503H146.256L147.21 50H146.247L145.509 43.25H141.387L140.649 50H139.686ZM137.796 50L141.072 22.721H145.824L149.1 50H148.137L147.147 41.756H139.749L138.759 50H137.796ZM139.812 41.009H147.057L146.148 32.828L145.014 23.477H141.882L140.712 32.828L139.812 41.009ZM140.865 40.262L141.612 32.828L142.512 24.179H144.384L145.32 32.828L146.04 40.262H140.865ZM141.828 39.515H145.077L144.456 32.828L143.7 24.935H143.196L142.44 32.828L141.828 39.515ZM161.74 50.333C159.496 50.333 157.822 49.838 156.718 48.848C155.62 47.858 155.026 46.148 154.936 43.718C154.924 43.322 154.915 42.842 154.909 42.278C154.909 41.708 154.921 41.15 154.945 40.604C154.969 40.052 155.008 39.617 155.062 39.299H155.98C155.944 39.617 155.911 40.01 155.881 40.478C155.857 40.946 155.842 41.456 155.836 42.008C155.836 42.56 155.848 43.121 155.872 43.691C155.95 45.821 156.451 47.336 157.375 48.236C158.299 49.136 159.754 49.586 161.74 49.586C163.762 49.586 165.232 49.133 166.15 48.227C167.074 47.315 167.575 45.8 167.653 43.682C167.665 43.31 167.674 42.962 167.68 42.638C167.692 42.308 167.698 41.975 167.698 41.639C167.704 41.303 167.698 40.931 167.68 40.523C167.62 38.855 167.227 37.532 166.501 36.554C165.775 35.576 164.755 34.913 163.441 34.565L160.453 33.755C160.051 33.641 159.709 33.464 159.427 33.224C159.151 32.978 158.938 32.648 158.788 32.234C158.638 31.814 158.554 31.289 158.536 30.659C158.518 30.131 158.509 29.624 158.509 29.138C158.515 28.646 158.524 28.112 158.536 27.536C158.584 26.228 158.857 25.289 159.355 24.719C159.853 24.149 160.648 23.864 161.74 23.864C162.754 23.864 163.495 24.146 163.963 24.71C164.437 25.274 164.701 26.225 164.755 27.563C164.773 28.049 164.776 28.694 164.764 29.498C164.752 30.302 164.731 31.067 164.701 31.793H163.774C163.804 31.073 163.825 30.302 163.837 29.48C163.849 28.658 163.849 28.043 163.837 27.635C163.795 26.459 163.597 25.661 163.243 25.241C162.895 24.821 162.394 24.611 161.74 24.611C160.942 24.611 160.372 24.848 160.03 25.322C159.694 25.796 159.505 26.564 159.463 27.626C159.445 28.196 159.439 28.739 159.445 29.255C159.451 29.771 159.457 30.23 159.463 30.632C159.475 31.112 159.529 31.508 159.625 31.82C159.721 32.126 159.856 32.363 160.03 32.531C160.21 32.699 160.429 32.816 160.687 32.882L163.657 33.656C165.211 34.058 166.408 34.829 167.248 35.969C168.088 37.103 168.544 38.609 168.616 40.487C168.628 40.841 168.631 41.192 168.625 41.54C168.625 41.888 168.622 42.242 168.616 42.602C168.61 42.956 168.598 43.328 168.58 43.718C168.484 46.094 167.902 47.792 166.834 48.812C165.772 49.826 164.074 50.333 161.74 50.333ZM161.74 48.839C160.09 48.839 158.872 48.449 158.086 47.669C157.3 46.883 156.871 45.545 156.799 43.655C156.781 43.181 156.772 42.668 156.772 42.116C156.778 41.558 156.79 41.027 156.808 40.523C156.826 40.013 156.856 39.605 156.898 39.299H157.816C157.786 39.635 157.759 40.031 157.735 40.487C157.711 40.937 157.699 41.432 157.699 41.972C157.699 42.506 157.708 43.067 157.726 43.655C157.786 45.245 158.128 46.382 158.752 47.066C159.382 47.744 160.378 48.083 161.74 48.083C163.12 48.083 164.125 47.741 164.755 47.057C165.385 46.367 165.733 45.233 165.799 43.655C165.817 43.223 165.829 42.845 165.835 42.521C165.841 42.191 165.844 41.876 165.844 41.576C165.844 41.27 165.838 40.946 165.826 40.604C165.796 39.776 165.667 39.077 165.439 38.507C165.217 37.931 164.902 37.469 164.494 37.121C164.086 36.767 163.591 36.515 163.009 36.365L159.985 35.582C159.337 35.414 158.77 35.138 158.284 34.754C157.798 34.364 157.414 33.839 157.132 33.179C156.856 32.513 156.703 31.691 156.673 30.713C156.667 30.329 156.661 29.96 156.655 29.606C156.655 29.252 156.655 28.901 156.655 28.553C156.661 28.205 156.67 27.854 156.682 27.5C156.748 25.622 157.18 24.296 157.978 23.522C158.782 22.748 160.036 22.361 161.74 22.361C163.408 22.361 164.62 22.76 165.376 23.558C166.132 24.356 166.546 25.676 166.618 27.518C166.636 27.998 166.639 28.655 166.627 29.489C166.615 30.317 166.591 31.085 166.555 31.793H165.637C165.661 31.139 165.679 30.401 165.691 29.579C165.709 28.751 165.709 28.064 165.691 27.518C165.625 25.94 165.286 24.812 164.674 24.134C164.062 23.456 163.084 23.117 161.74 23.117C160.408 23.117 159.4 23.435 158.716 24.071C158.038 24.701 157.669 25.847 157.609 27.509C157.591 28.115 157.582 28.664 157.582 29.156C157.582 29.648 157.591 30.158 157.609 30.686C157.633 31.478 157.747 32.144 157.951 32.684C158.161 33.224 158.455 33.656 158.833 33.98C159.211 34.304 159.67 34.538 160.21 34.682L163.225 35.465C164.335 35.747 165.187 36.308 165.781 37.148C166.381 37.988 166.705 39.125 166.753 40.559C166.765 40.895 166.771 41.213 166.771 41.513C166.777 41.807 166.774 42.119 166.762 42.449C166.756 42.779 166.744 43.178 166.726 43.646C166.654 45.464 166.237 46.784 165.475 47.606C164.719 48.428 163.474 48.839 161.74 48.839ZM161.74 47.336C160.708 47.336 159.949 47.054 159.463 46.49C158.977 45.92 158.707 44.951 158.653 43.583C158.641 43.079 158.635 42.572 158.635 42.062C158.635 41.546 158.644 41.054 158.662 40.586C158.68 40.112 158.704 39.683 158.734 39.299H159.652C159.622 39.749 159.598 40.199 159.58 40.649C159.562 41.093 159.553 41.555 159.553 42.035C159.553 42.509 159.562 43.016 159.58 43.556C159.622 44.558 159.793 45.314 160.093 45.824C160.393 46.334 160.942 46.589 161.74 46.589C162.484 46.589 163.027 46.355 163.369 45.887C163.711 45.413 163.903 44.624 163.945 43.52C163.963 43.076 163.972 42.695 163.972 42.377C163.978 42.053 163.981 41.759 163.981 41.495C163.981 41.225 163.975 40.946 163.963 40.658C163.951 40.13 163.888 39.698 163.774 39.362C163.66 39.02 163.501 38.753 163.297 38.561C163.099 38.369 162.856 38.24 162.568 38.174L159.517 37.382C158.533 37.13 157.696 36.716 157.006 36.14C156.322 35.564 155.794 34.829 155.422 33.935C155.056 33.041 154.855 31.988 154.819 30.776C154.801 30.152 154.792 29.576 154.792 29.048C154.798 28.52 154.81 27.983 154.828 27.437C154.918 25.109 155.494 23.432 156.556 22.406C157.618 21.38 159.346 20.867 161.74 20.867C163.99 20.867 165.649 21.365 166.717 22.361C167.791 23.351 168.376 25.046 168.472 27.446C168.49 27.926 168.493 28.604 168.481 29.48C168.469 30.35 168.448 31.121 168.418 31.793H167.482C167.524 31.049 167.548 30.266 167.554 29.444C167.566 28.616 167.563 27.962 167.545 27.482C167.467 25.37 166.972 23.864 166.06 22.964C165.154 22.064 163.714 21.614 161.74 21.614C159.688 21.614 158.197 22.064 157.267 22.964C156.337 23.858 155.833 25.358 155.755 27.464C155.731 28.124 155.719 28.703 155.719 29.201C155.725 29.699 155.734 30.215 155.746 30.749C155.782 31.811 155.956 32.732 156.268 33.512C156.58 34.286 157.027 34.922 157.609 35.42C158.197 35.912 158.911 36.266 159.751 36.482L162.793 37.274C163.219 37.382 163.582 37.568 163.882 37.832C164.188 38.09 164.428 38.447 164.602 38.903C164.776 39.359 164.875 39.935 164.899 40.631C164.911 40.973 164.917 41.282 164.917 41.558C164.917 41.834 164.914 42.128 164.908 42.44C164.902 42.746 164.887 43.121 164.863 43.565C164.809 44.915 164.542 45.881 164.062 46.463C163.588 47.045 162.814 47.336 161.74 47.336ZM180.195 50.333C177.771 50.333 176.028 49.823 174.966 48.803C173.904 47.777 173.355 46.085 173.319 43.727C173.289 41.723 173.271 39.824 173.265 38.03C173.259 36.236 173.259 34.475 173.265 32.747C173.277 31.019 173.295 29.255 173.319 27.455C173.355 25.103 173.901 23.42 174.957 22.406C176.013 21.386 177.744 20.876 180.15 20.876C182.49 20.876 184.191 21.38 185.253 22.388C186.321 23.396 186.894 25.085 186.972 27.455C186.984 27.725 186.99 28.037 186.99 28.391C186.99 28.739 186.987 29.111 186.981 29.507C186.981 29.897 186.978 30.29 186.972 30.686C186.966 31.082 186.957 31.454 186.945 31.802H186.009C186.027 31.34 186.039 30.842 186.045 30.308C186.057 29.768 186.063 29.249 186.063 28.751C186.063 28.247 186.057 27.821 186.045 27.473C185.973 25.379 185.478 23.882 184.56 22.982C183.648 22.076 182.178 21.623 180.15 21.623C178.062 21.623 176.562 22.076 175.65 22.982C174.744 23.888 174.276 25.385 174.246 27.473C174.222 29.309 174.204 31.136 174.192 32.954C174.186 34.772 174.186 36.578 174.192 38.372C174.204 40.166 174.222 41.945 174.246 43.709C174.276 45.809 174.75 47.315 175.668 48.227C176.592 49.133 178.101 49.586 180.195 49.586C182.247 49.586 183.738 49.133 184.668 48.227C185.598 47.321 186.105 45.815 186.189 43.709C186.207 43.109 186.216 42.425 186.216 41.657C186.222 40.883 186.21 40.097 186.18 39.299H187.107C187.131 40.025 187.143 40.799 187.143 41.621C187.149 42.437 187.14 43.139 187.116 43.727C187.032 46.085 186.453 47.777 185.379 48.803C184.305 49.823 182.577 50.333 180.195 50.333ZM180.195 48.839C178.431 48.839 177.159 48.443 176.379 47.651C175.605 46.859 175.206 45.542 175.182 43.7C175.152 41.888 175.131 40.1 175.119 38.336C175.113 36.572 175.113 34.796 175.119 33.008C175.131 31.214 175.152 29.369 175.182 27.473C175.206 25.649 175.602 24.344 176.37 23.558C177.144 22.766 178.404 22.37 180.15 22.37C181.848 22.37 183.081 22.766 183.849 23.558C184.623 24.344 185.043 25.652 185.109 27.482C185.121 27.746 185.127 28.061 185.127 28.427C185.133 28.793 185.133 29.18 185.127 29.588C185.121 29.99 185.115 30.383 185.109 30.767C185.103 31.151 185.094 31.496 185.082 31.802H184.155C184.179 31.178 184.191 30.599 184.191 30.065C184.197 29.525 184.2 29.039 184.2 28.607C184.2 28.175 184.194 27.815 184.182 27.527C184.128 25.967 183.789 24.842 183.165 24.152C182.547 23.462 181.542 23.117 180.15 23.117C178.722 23.117 177.696 23.453 177.072 24.125C176.454 24.797 176.133 25.913 176.109 27.473C176.085 29.261 176.067 31.043 176.055 32.819C176.043 34.589 176.043 36.38 176.055 38.192C176.067 39.998 176.085 41.849 176.109 43.745C176.133 45.317 176.463 46.436 177.099 47.102C177.735 47.762 178.761 48.092 180.177 48.092C181.635 48.092 182.673 47.741 183.291 47.039C183.915 46.331 184.26 45.203 184.326 43.655C184.344 43.283 184.353 42.863 184.353 42.395C184.359 41.927 184.359 41.432 184.353 40.91C184.353 40.382 184.344 39.845 184.326 39.299H185.253C185.271 39.785 185.28 40.298 185.28 40.838C185.286 41.372 185.286 41.888 185.28 42.386C185.28 42.884 185.271 43.328 185.253 43.718C185.187 45.554 184.758 46.868 183.966 47.66C183.174 48.446 181.917 48.839 180.195 48.839ZM180.177 47.345C179.085 47.345 178.293 47.072 177.801 46.526C177.309 45.974 177.054 45.044 177.036 43.736C177.012 41.954 176.994 40.175 176.982 38.399C176.976 36.623 176.976 34.832 176.982 33.026C176.994 31.214 177.012 29.366 177.036 27.482C177.054 26.18 177.303 25.253 177.783 24.701C178.263 24.143 179.052 23.864 180.15 23.864C181.2 23.864 181.965 24.149 182.445 24.719C182.931 25.283 183.201 26.216 183.255 27.518C183.267 27.806 183.273 28.166 183.273 28.598C183.273 29.03 183.27 29.516 183.264 30.056C183.258 30.596 183.246 31.178 183.228 31.802H182.292C182.316 31.178 182.331 30.593 182.337 30.047C182.343 29.495 182.346 29.009 182.346 28.589C182.346 28.169 182.34 27.836 182.328 27.59C182.286 26.582 182.106 25.835 181.788 25.349C181.47 24.857 180.924 24.611 180.15 24.611C179.376 24.611 178.821 24.833 178.485 25.277C178.155 25.715 177.981 26.456 177.963 27.5C177.939 29.318 177.921 31.109 177.909 32.873C177.897 34.631 177.897 36.404 177.909 38.192C177.921 39.974 177.939 41.816 177.963 43.718C177.981 44.762 178.161 45.503 178.503 45.941C178.845 46.379 179.403 46.598 180.177 46.598C180.939 46.598 181.497 46.373 181.851 45.923C182.211 45.467 182.418 44.705 182.472 43.637C182.49 43.157 182.499 42.506 182.499 41.684C182.499 40.856 182.487 40.061 182.463 39.299H183.39C183.42 40.037 183.435 40.802 183.435 41.594C183.435 42.386 183.423 43.061 183.399 43.619C183.345 44.957 183.069 45.914 182.571 46.49C182.073 47.06 181.275 47.345 180.177 47.345ZM190.985 50L194.747 21.2H202.235L205.997 50H205.052L201.425 21.956H195.557L191.93 50H190.985ZM194.729 50L195.683 42.503H201.299L202.253 50H201.29L200.552 43.25H196.43L195.692 50H194.729ZM192.839 50L196.115 22.721H200.867L204.143 50H203.18L202.19 41.756H194.792L193.802 50H192.839ZM194.855 41.009H202.1L201.191 32.828L200.057 23.477H196.925L195.755 32.828L194.855 41.009ZM195.908 40.262L196.655 32.828L197.555 24.179H199.427L200.363 32.828L201.083 40.262H195.908ZM196.871 39.515H200.12L199.499 32.828L198.743 24.935H198.239L197.483 32.828L196.871 39.515Z" fill="url(#paint0_linear_1_400)"/>
<defs>
<linearGradient id="paint0_linear_1_400" x1="31.9595" y1="18" x2="173.833" y2="15.8116" gradientUnits="userSpaceOnUse">
<stop stop-color="#754ABC"/>
<stop offset="1" stop-color="#009FE8"/>
</linearGradient>
</defs>
</svg>
