<svg width="196" height="31" viewBox="0 0 196 31" fill="none" xmlns="http://www.w3.org/2000/svg">
<path d="M0.331438 30L4.09344 1.2H11.5814L15.3434 30H14.3984L10.7714 1.956H4.90344L1.27644 30H0.331438ZM4.07544 30L5.02944 22.503H10.6454L11.5994 30H10.6364L9.89844 23.25H5.77644L5.03844 30H4.07544ZM2.18544 30L5.46144 2.721H10.2134L13.4894 30H12.5264L11.5364 21.756H4.13844L3.14844 30H2.18544ZM4.20144 21.009H11.4464L10.5374 12.828L9.40344 3.477H6.27144L5.10144 12.828L4.20144 21.009ZM5.25444 20.262L6.00144 12.828L6.90144 4.179H8.77344L9.70944 12.828L10.4294 20.262H5.25444ZM6.21744 19.515H9.46644L8.84544 12.828L8.08944 4.935H7.58544L6.82944 12.828L6.21744 19.515ZM19.7214 30V1.2H26.1474C27.6354 1.2 28.8864 1.395 29.9004 1.785C30.9204 2.169 31.7004 2.829 32.2404 3.765C32.7804 4.695 33.0804 5.982 33.1404 7.626C33.1824 8.802 33.2004 9.891 33.1944 10.893C33.1944 11.889 33.1764 12.93 33.1404 14.016C33.0864 15.42 32.8284 16.524 32.3664 17.328C31.9044 18.132 31.1754 18.765 30.1794 19.227L33.2664 30H32.2944L29.0364 18.75C30.1164 18.45 30.9024 17.931 31.3944 17.193C31.8864 16.449 32.1564 15.381 32.2044 13.989C32.2404 12.945 32.2584 11.919 32.2584 10.911C32.2644 9.903 32.2464 8.82 32.2044 7.662C32.1564 6.192 31.8924 5.049 31.4124 4.233C30.9324 3.411 30.2514 2.835 29.3694 2.505C28.4874 2.175 27.4134 2.01 26.1474 2.01H20.6484V30H19.7214ZM23.4384 30V19.029H25.0854C25.2774 19.029 25.4664 19.029 25.6524 19.029C25.8444 19.029 26.0304 19.029 26.2104 19.029L29.3694 30H28.3974L25.5264 19.839C25.4604 19.839 25.3914 19.839 25.3194 19.839C25.2534 19.839 25.1874 19.839 25.1214 19.839H24.3654V30H23.4384ZM21.5754 30V2.82H26.1474C27.2034 2.82 28.1034 2.961 28.8474 3.243C29.5974 3.519 30.1764 4.011 30.5844 4.719C30.9984 5.427 31.2294 6.417 31.2774 7.689C31.3134 8.781 31.3344 9.84 31.3404 10.866C31.3464 11.886 31.3254 12.915 31.2774 13.953C31.2234 15.237 30.9294 16.203 30.3954 16.851C29.8614 17.493 29.0064 17.913 27.8304 18.111L31.3224 30H30.3504L26.8854 18.201C26.7774 18.207 26.6604 18.213 26.5344 18.219C26.4144 18.219 26.2824 18.219 26.1384 18.219H22.5114V30H21.5754ZM22.5114 17.418H26.1384C27.4464 17.418 28.4604 17.181 29.1804 16.707C29.9064 16.227 30.2964 15.3 30.3504 13.926C30.3864 12.876 30.4044 11.859 30.4044 10.875C30.4104 9.885 30.3924 8.832 30.3504 7.716C30.2904 6.102 29.8974 5.016 29.1714 4.458C28.4454 3.9 27.4374 3.621 26.1474 3.621H22.5114V17.418ZM23.4384 16.608V4.431H26.1474C27.1674 4.431 27.9564 4.659 28.5144 5.115C29.0724 5.571 29.3754 6.45 29.4234 7.752C29.4594 8.796 29.4774 9.813 29.4774 10.803C29.4834 11.793 29.4654 12.822 29.4234 13.89C29.3814 14.958 29.0814 15.678 28.5234 16.05C27.9654 16.422 27.1704 16.608 26.1384 16.608H23.4384ZM24.3654 15.798H26.1384C26.8944 15.798 27.4704 15.666 27.8664 15.402C28.2624 15.132 28.4694 14.619 28.4874 13.863C28.5234 12.627 28.5384 11.535 28.5324 10.587C28.5324 9.639 28.5174 8.703 28.4874 7.779C28.4634 6.831 28.2624 6.171 27.8844 5.799C27.5124 5.427 26.9334 5.241 26.1474 5.241H24.3654V15.798ZM44.5147 30.333C42.0907 30.333 40.3477 29.823 39.2857 28.803C38.2237 27.777 37.6747 26.085 37.6387 23.727C37.6087 21.723 37.5907 19.824 37.5847 18.03C37.5787 16.236 37.5787 14.475 37.5847 12.747C37.5967 11.019 37.6147 9.255 37.6387 7.455C37.6747 5.103 38.2207 3.42 39.2767 2.406C40.3327 1.386 42.0637 0.875999 44.4697 0.875999C46.8097 0.875999 48.5107 1.38 49.5727 2.388C50.6407 3.396 51.2137 5.085 51.2917 7.455C51.3037 7.725 51.3097 8.037 51.3097 8.391C51.3097 8.739 51.3067 9.111 51.3007 9.507C51.3007 9.897 51.2977 10.29 51.2917 10.686C51.2857 11.082 51.2767 11.454 51.2647 11.802H50.3287C50.3467 11.34 50.3587 10.842 50.3647 10.308C50.3767 9.768 50.3827 9.249 50.3827 8.751C50.3827 8.247 50.3767 7.821 50.3647 7.473C50.2927 5.379 49.7977 3.882 48.8797 2.982C47.9677 2.076 46.4977 1.623 44.4697 1.623C42.3817 1.623 40.8817 2.076 39.9697 2.982C39.0637 3.888 38.5957 5.385 38.5657 7.473C38.5417 9.309 38.5237 11.136 38.5117 12.954C38.5057 14.772 38.5057 16.578 38.5117 18.372C38.5237 20.166 38.5417 21.945 38.5657 23.709C38.5957 25.809 39.0697 27.315 39.9877 28.227C40.9117 29.133 42.4207 29.586 44.5147 29.586C46.5667 29.586 48.0577 29.133 48.9877 28.227C49.9177 27.321 50.4247 25.815 50.5087 23.709C50.5267 23.109 50.5357 22.425 50.5357 21.657C50.5417 20.883 50.5297 20.097 50.4997 19.299H51.4267C51.4507 20.025 51.4627 20.799 51.4627 21.621C51.4687 22.437 51.4597 23.139 51.4357 23.727C51.3517 26.085 50.7727 27.777 49.6987 28.803C48.6247 29.823 46.8967 30.333 44.5147 30.333ZM44.5147 28.839C42.7507 28.839 41.4787 28.443 40.6987 27.651C39.9247 26.859 39.5257 25.542 39.5017 23.7C39.4717 21.888 39.4507 20.1 39.4387 18.336C39.4327 16.572 39.4327 14.796 39.4387 13.008C39.4507 11.214 39.4717 9.369 39.5017 7.473C39.5257 5.649 39.9217 4.344 40.6897 3.558C41.4637 2.766 42.7237 2.37 44.4697 2.37C46.1677 2.37 47.4007 2.766 48.1687 3.558C48.9427 4.344 49.3627 5.652 49.4287 7.482C49.4407 7.746 49.4467 8.061 49.4467 8.427C49.4527 8.793 49.4527 9.18 49.4467 9.588C49.4407 9.99 49.4347 10.383 49.4287 10.767C49.4227 11.151 49.4137 11.496 49.4017 11.802H48.4747C48.4987 11.178 48.5107 10.599 48.5107 10.065C48.5167 9.525 48.5197 9.039 48.5197 8.607C48.5197 8.175 48.5137 7.815 48.5017 7.527C48.4477 5.967 48.1087 4.842 47.4847 4.152C46.8667 3.462 45.8617 3.117 44.4697 3.117C43.0417 3.117 42.0157 3.453 41.3917 4.125C40.7737 4.797 40.4527 5.913 40.4287 7.473C40.4047 9.261 40.3867 11.043 40.3747 12.819C40.3627 14.589 40.3627 16.38 40.3747 18.192C40.3867 19.998 40.4047 21.849 40.4287 23.745C40.4527 25.317 40.7827 26.436 41.4187 27.102C42.0547 27.762 43.0807 28.092 44.4967 28.092C45.9547 28.092 46.9927 27.741 47.6107 27.039C48.2347 26.331 48.5797 25.203 48.6457 23.655C48.6637 23.283 48.6727 22.863 48.6727 22.395C48.6787 21.927 48.6787 21.432 48.6727 20.91C48.6727 20.382 48.6637 19.845 48.6457 19.299H49.5727C49.5907 19.785 49.5997 20.298 49.5997 20.838C49.6057 21.372 49.6057 21.888 49.5997 22.386C49.5997 22.884 49.5907 23.328 49.5727 23.718C49.5067 25.554 49.0777 26.868 48.2857 27.66C47.4937 28.446 46.2367 28.839 44.5147 28.839ZM44.4967 27.345C43.4047 27.345 42.6127 27.072 42.1207 26.526C41.6287 25.974 41.3737 25.044 41.3557 23.736C41.3317 21.954 41.3137 20.175 41.3017 18.399C41.2957 16.623 41.2957 14.832 41.3017 13.026C41.3137 11.214 41.3317 9.366 41.3557 7.482C41.3737 6.18 41.6227 5.253 42.1027 4.701C42.5827 4.143 43.3717 3.864 44.4697 3.864C45.5197 3.864 46.2847 4.149 46.7647 4.719C47.2507 5.283 47.5207 6.216 47.5747 7.518C47.5867 7.806 47.5927 8.166 47.5927 8.598C47.5927 9.03 47.5897 9.516 47.5837 10.056C47.5777 10.596 47.5657 11.178 47.5477 11.802H46.6117C46.6357 11.178 46.6507 10.593 46.6567 10.047C46.6627 9.495 46.6657 9.009 46.6657 8.589C46.6657 8.169 46.6597 7.836 46.6477 7.59C46.6057 6.582 46.4257 5.835 46.1077 5.349C45.7897 4.857 45.2437 4.611 44.4697 4.611C43.6957 4.611 43.1407 4.833 42.8047 5.277C42.4747 5.715 42.3007 6.456 42.2827 7.5C42.2587 9.318 42.2407 11.109 42.2287 12.873C42.2167 14.631 42.2167 16.404 42.2287 18.192C42.2407 19.974 42.2587 21.816 42.2827 23.718C42.3007 24.762 42.4807 25.503 42.8227 25.941C43.1647 26.379 43.7227 26.598 44.4967 26.598C45.2587 26.598 45.8167 26.373 46.1707 25.923C46.5307 25.467 46.7377 24.705 46.7917 23.637C46.8097 23.157 46.8187 22.506 46.8187 21.684C46.8187 20.856 46.8067 20.061 46.7827 19.299H47.7097C47.7397 20.037 47.7547 20.802 47.7547 21.594C47.7547 22.386 47.7427 23.061 47.7187 23.619C47.6647 24.957 47.3887 25.914 46.8907 26.49C46.3927 27.06 45.5947 27.345 44.4967 27.345ZM58.353 30V1.2H59.289V14.988H66.984V1.2H67.911V30H66.984V15.789H59.289V30H58.353ZM60.234 30V16.599H66.057V30H65.13V17.409H61.143V30H60.234ZM56.499 30V1.2H57.426V30H56.499ZM68.847 30V1.2H69.774V30H68.847ZM60.216 14.178V1.2H61.143V13.368H65.13V1.2H66.057V14.178H60.216ZM78.9388 30V1.2H79.8658V30H78.9388ZM75.2218 30V1.2H76.1488V30H75.2218ZM77.0758 30V1.2H78.0118V30H77.0758ZM92.6934 30.333C90.1554 30.333 88.3224 29.823 87.1944 28.803C86.0664 27.783 85.4724 26.1 85.4124 23.754C85.4004 23.13 85.3944 22.617 85.3944 22.215C85.3944 21.807 85.4034 21.42 85.4214 21.054C85.4394 20.682 85.4664 20.238 85.5024 19.722C85.5624 18.792 85.8594 17.826 86.3934 16.824C86.9334 15.816 87.5904 14.961 88.3644 14.259C88.0104 13.485 87.6954 12.723 87.4194 11.973C87.1494 11.223 86.9304 10.488 86.7624 9.768C86.5944 9.042 86.4894 8.343 86.4474 7.671C86.2674 5.463 86.6904 3.777 87.7164 2.613C88.7484 1.449 90.3264 0.866998 92.4504 0.866998C94.5864 0.866998 96.1584 1.431 97.1664 2.559C98.1744 3.687 98.5614 5.319 98.3274 7.455C98.2674 8.139 98.1234 8.811 97.8954 9.471C97.6674 10.131 97.3584 10.782 96.9684 11.424C96.5844 12.066 96.1254 12.705 95.5914 13.341C95.0574 13.977 94.4544 14.619 93.7824 15.267C94.0824 15.927 94.4514 16.641 94.8894 17.409C95.3274 18.177 95.7564 18.888 96.1764 19.542L96.2304 19.515C96.2304 19.113 96.2094 18.666 96.1674 18.174C96.1254 17.676 96.0744 17.184 96.0144 16.698C95.9544 16.212 95.8854 15.783 95.8074 15.411H96.6084C96.6924 16.065 96.7584 16.719 96.8064 17.373C96.8604 18.021 96.8964 18.681 96.9144 19.353C96.9384 20.025 96.9444 20.733 96.9324 21.477L96.8874 21.495C96.3354 20.781 95.8074 20.058 95.3034 19.326C94.8054 18.594 94.3374 17.871 93.8994 17.157C93.4614 16.443 93.0594 15.756 92.6934 15.096C93.4674 14.388 94.1454 13.719 94.7274 13.089C95.3094 12.453 95.7984 11.832 96.1944 11.226C96.5904 10.614 96.8994 9.993 97.1214 9.363C97.3434 8.733 97.4874 8.064 97.5534 7.356C97.7514 5.49 97.4154 4.068 96.5454 3.09C95.6754 2.106 94.3104 1.614 92.4504 1.614C90.6084 1.614 89.2434 2.124 88.3554 3.144C87.4734 4.164 87.1044 5.646 87.2484 7.59C87.2784 8.052 87.3474 8.544 87.4554 9.066C87.5694 9.588 87.7194 10.137 87.9054 10.713C88.0914 11.283 88.3164 11.88 88.5804 12.504C88.8444 13.128 89.1414 13.77 89.4714 14.43C88.8654 14.874 88.3374 15.393 87.8874 15.987C87.4434 16.575 87.0924 17.196 86.8344 17.85C86.5824 18.498 86.4384 19.14 86.4024 19.776C86.3604 20.28 86.3304 20.712 86.3124 21.072C86.2944 21.432 86.2854 21.81 86.2854 22.206C86.2854 22.602 86.2914 23.109 86.3034 23.727C86.3574 25.821 86.8794 27.321 87.8694 28.227C88.8594 29.133 90.4674 29.586 92.6934 29.586C93.6894 29.586 94.5354 29.475 95.2314 29.253C95.9274 29.031 96.5004 28.689 96.9504 28.227C97.4064 27.759 97.7694 27.159 98.0394 26.427L98.0934 26.409C98.3754 26.745 98.6604 27.093 98.9484 27.453C99.2364 27.807 99.5274 28.161 99.8214 28.515C100.121 28.863 100.424 29.205 100.73 29.541L100.145 30.108C99.8154 29.736 99.4824 29.352 99.1464 28.956C98.8104 28.554 98.4804 28.164 98.1564 27.786L98.1024 27.804C97.6344 28.644 96.9684 29.277 96.1044 29.703C95.2404 30.123 94.1034 30.333 92.6934 30.333ZM92.6934 28.839C90.7794 28.839 89.3964 28.44 88.5444 27.642C87.6924 26.844 87.2454 25.533 87.2034 23.709C87.1914 23.079 87.1854 22.569 87.1854 22.179C87.1854 21.789 87.1944 21.42 87.2124 21.072C87.2304 20.724 87.2574 20.304 87.2934 19.812C87.3594 18.756 87.6654 17.82 88.2114 17.004C88.7574 16.188 89.5314 15.417 90.5334 14.691C90.0414 13.755 89.6154 12.861 89.2554 12.009C88.9014 11.151 88.6224 10.344 88.4184 9.588C88.2204 8.832 88.1004 8.136 88.0584 7.5C87.9324 5.826 88.2444 4.551 88.9944 3.675C89.7444 2.799 90.8964 2.361 92.4504 2.361C94.0224 2.361 95.1774 2.778 95.9154 3.612C96.6534 4.446 96.9384 5.655 96.7704 7.239C96.7044 7.953 96.5604 8.625 96.3384 9.255C96.1164 9.879 95.8014 10.491 95.3934 11.091C94.9854 11.691 94.4754 12.306 93.8634 12.936C93.2574 13.566 92.5314 14.244 91.6854 14.97C92.1834 15.822 92.7294 16.707 93.3234 17.625C93.9174 18.537 94.5594 19.47 95.2494 20.424C95.9454 21.378 96.6864 22.341 97.4724 23.313C97.5624 22.629 97.6074 21.81 97.6074 20.856C97.6134 19.896 97.5924 18.93 97.5444 17.958C97.5024 16.986 97.4394 16.137 97.3554 15.411H98.1204C98.1924 16.065 98.2494 16.77 98.2914 17.526C98.3334 18.282 98.3544 19.047 98.3544 19.821C98.3604 20.589 98.3424 21.327 98.3004 22.035C98.2584 22.743 98.1894 23.376 98.0934 23.934C98.4894 24.426 98.8944 24.921 99.3084 25.419C99.7284 25.917 100.154 26.415 100.586 26.913C101.018 27.405 101.456 27.897 101.9 28.389L101.315 28.956C100.907 28.524 100.505 28.089 100.109 27.651C99.7134 27.213 99.3264 26.772 98.9484 26.328C98.5704 25.878 98.1954 25.437 97.8234 25.005C97.6014 25.893 97.2864 26.619 96.8784 27.183C96.4704 27.747 95.9304 28.164 95.2584 28.434C94.5864 28.704 93.7314 28.839 92.6934 28.839ZM92.6934 28.083C93.6534 28.083 94.4304 27.954 95.0244 27.696C95.6244 27.432 96.0954 27.024 96.4374 26.472C96.7794 25.92 97.0464 25.209 97.2384 24.339C96.3744 23.295 95.5674 22.263 94.8174 21.243C94.0734 20.223 93.3804 19.221 92.7384 18.237C92.1024 17.247 91.5234 16.293 91.0014 15.375C90.0594 16.089 89.3694 16.788 88.9314 17.472C88.4994 18.15 88.2504 18.948 88.1844 19.866C88.1484 20.34 88.1214 20.745 88.1034 21.081C88.0914 21.417 88.0854 21.78 88.0854 22.17C88.0854 22.554 88.0884 23.058 88.0944 23.682C88.1364 25.254 88.5114 26.382 89.2194 27.066C89.9334 27.744 91.0914 28.083 92.6934 28.083ZM92.6934 27.336C91.4034 27.336 90.4704 27.051 89.8944 26.481C89.3244 25.911 89.0244 24.969 88.9944 23.655C88.9824 23.043 88.9764 22.548 88.9764 22.17C88.9764 21.792 88.9854 21.438 89.0034 21.108C89.0214 20.778 89.0484 20.379 89.0844 19.911C89.1324 19.197 89.3034 18.573 89.5974 18.039C89.8974 17.499 90.2874 17.034 90.7674 16.644C91.1394 17.274 91.5354 17.913 91.9554 18.561C92.3754 19.209 92.8194 19.866 93.2874 20.532C93.7614 21.198 94.2564 21.873 94.7724 22.557C95.2884 23.235 95.8254 23.916 96.3834 24.6C96.2154 25.236 95.9844 25.758 95.6904 26.166C95.4024 26.568 95.0184 26.865 94.5384 27.057C94.0584 27.243 93.4434 27.336 92.6934 27.336ZM92.6934 26.589C93.2394 26.589 93.6894 26.526 94.0434 26.4C94.3974 26.274 94.6854 26.079 94.9074 25.815C95.1294 25.551 95.3154 25.215 95.4654 24.807C94.8534 24.057 94.2624 23.301 93.6924 22.539C93.1284 21.771 92.5854 21.006 92.0634 20.244C91.5474 19.476 91.0554 18.72 90.5874 17.976C90.3894 18.186 90.2334 18.489 90.1194 18.885C90.0114 19.275 89.9424 19.635 89.9124 19.965C89.8824 20.421 89.8584 20.811 89.8404 21.135C89.8224 21.459 89.8134 21.804 89.8134 22.17C89.8134 22.536 89.8194 23.022 89.8314 23.628C89.8614 24.69 90.1014 25.449 90.5514 25.905C91.0014 26.361 91.7154 26.589 92.6934 26.589ZM91.2444 14.16C92.0364 13.5 92.7204 12.885 93.2964 12.315C93.8724 11.739 94.3464 11.178 94.7184 10.632C95.0964 10.086 95.3874 9.531 95.5914 8.967C95.8014 8.397 95.9364 7.785 95.9964 7.131C96.1284 5.811 95.8944 4.812 95.2944 4.134C94.6944 3.456 93.7464 3.117 92.4504 3.117C91.1784 3.117 90.2394 3.483 89.6334 4.215C89.0274 4.941 88.7754 6.009 88.8774 7.419C88.9194 8.295 89.1444 9.306 89.5524 10.452C89.9664 11.598 90.5304 12.834 91.2444 14.16ZM91.4694 12.954C90.9294 11.844 90.5034 10.815 90.1914 9.867C89.8854 8.919 89.7174 8.073 89.6874 7.329C89.6034 6.189 89.7954 5.328 90.2634 4.746C90.7314 4.158 91.4604 3.864 92.4504 3.864C93.4644 3.864 94.2024 4.131 94.6644 4.665C95.1264 5.193 95.3064 5.979 95.2044 7.023C95.1624 7.575 95.0484 8.106 94.8624 8.616C94.6764 9.126 94.4244 9.624 94.1064 10.11C93.7884 10.596 93.4104 11.076 92.9724 11.55C92.5344 12.018 92.0334 12.486 91.4694 12.954ZM91.7664 11.712C92.1684 11.322 92.5284 10.932 92.8464 10.542C93.1644 10.152 93.4344 9.762 93.6564 9.372C93.8784 8.982 94.0554 8.583 94.1874 8.175C94.3194 7.767 94.4004 7.347 94.4304 6.915C94.5024 6.147 94.3734 5.571 94.0434 5.187C93.7134 4.803 93.1824 4.611 92.4504 4.611C91.7484 4.611 91.2324 4.833 90.9024 5.277C90.5724 5.715 90.4374 6.372 90.4974 7.248C90.5214 7.836 90.6414 8.508 90.8574 9.264C91.0794 10.014 91.3824 10.83 91.7664 11.712ZM102.485 27.813C102.065 27.357 101.651 26.904 101.243 26.454C100.835 25.998 100.436 25.539 100.046 25.077C99.6564 24.615 99.2754 24.156 98.9034 23.7C99.0234 22.932 99.0924 22.059 99.1104 21.081C99.1284 20.103 99.1104 19.119 99.0564 18.129C99.0024 17.133 98.9274 16.227 98.8314 15.411H99.5424C99.6084 16.083 99.6714 16.884 99.7314 17.814C99.7914 18.738 99.8214 19.689 99.8214 20.667C99.8274 21.645 99.7854 22.548 99.6954 23.376C100.049 23.808 100.409 24.243 100.775 24.681C101.141 25.113 101.516 25.542 101.9 25.968C102.284 26.394 102.674 26.817 103.07 27.237L102.485 27.813ZM115.152 30.333C112.728 30.333 110.985 29.823 109.923 28.803C108.861 27.777 108.312 26.085 108.276 23.727C108.246 21.723 108.228 19.824 108.222 18.03C108.216 16.236 108.216 14.475 108.222 12.747C108.234 11.019 108.252 9.255 108.276 7.455C108.312 5.103 108.858 3.42 109.914 2.406C110.97 1.386 112.701 0.875999 115.107 0.875999C117.447 0.875999 119.148 1.38 120.21 2.388C121.278 3.396 121.851 5.085 121.929 7.455C121.941 7.725 121.947 8.037 121.947 8.391C121.947 8.739 121.944 9.111 121.938 9.507C121.938 9.897 121.935 10.29 121.929 10.686C121.923 11.082 121.914 11.454 121.902 11.802H120.966C120.984 11.34 120.996 10.842 121.002 10.308C121.014 9.768 121.02 9.249 121.02 8.751C121.02 8.247 121.014 7.821 121.002 7.473C120.93 5.379 120.435 3.882 119.517 2.982C118.605 2.076 117.135 1.623 115.107 1.623C113.019 1.623 111.519 2.076 110.607 2.982C109.701 3.888 109.233 5.385 109.203 7.473C109.179 9.309 109.161 11.136 109.149 12.954C109.143 14.772 109.143 16.578 109.149 18.372C109.161 20.166 109.179 21.945 109.203 23.709C109.233 25.809 109.707 27.315 110.625 28.227C111.549 29.133 113.058 29.586 115.152 29.586C117.204 29.586 118.695 29.133 119.625 28.227C120.555 27.321 121.062 25.815 121.146 23.709C121.164 23.109 121.173 22.425 121.173 21.657C121.179 20.883 121.167 20.097 121.137 19.299H122.064C122.088 20.025 122.1 20.799 122.1 21.621C122.106 22.437 122.097 23.139 122.073 23.727C121.989 26.085 121.41 27.777 120.336 28.803C119.262 29.823 117.534 30.333 115.152 30.333ZM115.152 28.839C113.388 28.839 112.116 28.443 111.336 27.651C110.562 26.859 110.163 25.542 110.139 23.7C110.109 21.888 110.088 20.1 110.076 18.336C110.07 16.572 110.07 14.796 110.076 13.008C110.088 11.214 110.109 9.369 110.139 7.473C110.163 5.649 110.559 4.344 111.327 3.558C112.101 2.766 113.361 2.37 115.107 2.37C116.805 2.37 118.038 2.766 118.806 3.558C119.58 4.344 120 5.652 120.066 7.482C120.078 7.746 120.084 8.061 120.084 8.427C120.09 8.793 120.09 9.18 120.084 9.588C120.078 9.99 120.072 10.383 120.066 10.767C120.06 11.151 120.051 11.496 120.039 11.802H119.112C119.136 11.178 119.148 10.599 119.148 10.065C119.154 9.525 119.157 9.039 119.157 8.607C119.157 8.175 119.151 7.815 119.139 7.527C119.085 5.967 118.746 4.842 118.122 4.152C117.504 3.462 116.499 3.117 115.107 3.117C113.679 3.117 112.653 3.453 112.029 4.125C111.411 4.797 111.09 5.913 111.066 7.473C111.042 9.261 111.024 11.043 111.012 12.819C111 14.589 111 16.38 111.012 18.192C111.024 19.998 111.042 21.849 111.066 23.745C111.09 25.317 111.42 26.436 112.056 27.102C112.692 27.762 113.718 28.092 115.134 28.092C116.592 28.092 117.63 27.741 118.248 27.039C118.872 26.331 119.217 25.203 119.283 23.655C119.301 23.283 119.31 22.863 119.31 22.395C119.316 21.927 119.316 21.432 119.31 20.91C119.31 20.382 119.301 19.845 119.283 19.299H120.21C120.228 19.785 120.237 20.298 120.237 20.838C120.243 21.372 120.243 21.888 120.237 22.386C120.237 22.884 120.228 23.328 120.21 23.718C120.144 25.554 119.715 26.868 118.923 27.66C118.131 28.446 116.874 28.839 115.152 28.839ZM115.134 27.345C114.042 27.345 113.25 27.072 112.758 26.526C112.266 25.974 112.011 25.044 111.993 23.736C111.969 21.954 111.951 20.175 111.939 18.399C111.933 16.623 111.933 14.832 111.939 13.026C111.951 11.214 111.969 9.366 111.993 7.482C112.011 6.18 112.26 5.253 112.74 4.701C113.22 4.143 114.009 3.864 115.107 3.864C116.157 3.864 116.922 4.149 117.402 4.719C117.888 5.283 118.158 6.216 118.212 7.518C118.224 7.806 118.23 8.166 118.23 8.598C118.23 9.03 118.227 9.516 118.221 10.056C118.215 10.596 118.203 11.178 118.185 11.802H117.249C117.273 11.178 117.288 10.593 117.294 10.047C117.3 9.495 117.303 9.009 117.303 8.589C117.303 8.169 117.297 7.836 117.285 7.59C117.243 6.582 117.063 5.835 116.745 5.349C116.427 4.857 115.881 4.611 115.107 4.611C114.333 4.611 113.778 4.833 113.442 5.277C113.112 5.715 112.938 6.456 112.92 7.5C112.896 9.318 112.878 11.109 112.866 12.873C112.854 14.631 112.854 16.404 112.866 18.192C112.878 19.974 112.896 21.816 112.92 23.718C112.938 24.762 113.118 25.503 113.46 25.941C113.802 26.379 114.36 26.598 115.134 26.598C115.896 26.598 116.454 26.373 116.808 25.923C117.168 25.467 117.375 24.705 117.429 23.637C117.447 23.157 117.456 22.506 117.456 21.684C117.456 20.856 117.444 20.061 117.42 19.299H118.347C118.377 20.037 118.392 20.802 118.392 21.594C118.392 22.386 118.38 23.061 118.356 23.619C118.302 24.957 118.026 25.914 117.528 26.49C117.03 27.06 116.232 27.345 115.134 27.345ZM125.942 30L129.704 1.2H137.192L140.954 30H140.009L136.382 1.956H130.514L126.887 30H125.942ZM129.686 30L130.64 22.503H136.256L137.21 30H136.247L135.509 23.25H131.387L130.649 30H129.686ZM127.796 30L131.072 2.721H135.824L139.1 30H138.137L137.147 21.756H129.749L128.759 30H127.796ZM129.812 21.009H137.057L136.148 12.828L135.014 3.477H131.882L130.712 12.828L129.812 21.009ZM130.865 20.262L131.612 12.828L132.512 4.179H134.384L135.32 12.828L136.04 20.262H130.865ZM131.828 19.515H135.077L134.456 12.828L133.7 4.935H133.196L132.44 12.828L131.828 19.515ZM151.74 30.333C149.496 30.333 147.822 29.838 146.718 28.848C145.62 27.858 145.026 26.148 144.936 23.718C144.924 23.322 144.915 22.842 144.909 22.278C144.909 21.708 144.921 21.15 144.945 20.604C144.969 20.052 145.008 19.617 145.062 19.299H145.98C145.944 19.617 145.911 20.01 145.881 20.478C145.857 20.946 145.842 21.456 145.836 22.008C145.836 22.56 145.848 23.121 145.872 23.691C145.95 25.821 146.451 27.336 147.375 28.236C148.299 29.136 149.754 29.586 151.74 29.586C153.762 29.586 155.232 29.133 156.15 28.227C157.074 27.315 157.575 25.8 157.653 23.682C157.665 23.31 157.674 22.962 157.68 22.638C157.692 22.308 157.698 21.975 157.698 21.639C157.704 21.303 157.698 20.931 157.68 20.523C157.62 18.855 157.227 17.532 156.501 16.554C155.775 15.576 154.755 14.913 153.441 14.565L150.453 13.755C150.051 13.641 149.709 13.464 149.427 13.224C149.151 12.978 148.938 12.648 148.788 12.234C148.638 11.814 148.554 11.289 148.536 10.659C148.518 10.131 148.509 9.624 148.509 9.138C148.515 8.646 148.524 8.112 148.536 7.536C148.584 6.228 148.857 5.289 149.355 4.719C149.853 4.149 150.648 3.864 151.74 3.864C152.754 3.864 153.495 4.146 153.963 4.71C154.437 5.274 154.701 6.225 154.755 7.563C154.773 8.049 154.776 8.694 154.764 9.498C154.752 10.302 154.731 11.067 154.701 11.793H153.774C153.804 11.073 153.825 10.302 153.837 9.48C153.849 8.658 153.849 8.043 153.837 7.635C153.795 6.459 153.597 5.661 153.243 5.241C152.895 4.821 152.394 4.611 151.74 4.611C150.942 4.611 150.372 4.848 150.03 5.322C149.694 5.796 149.505 6.564 149.463 7.626C149.445 8.196 149.439 8.739 149.445 9.255C149.451 9.771 149.457 10.23 149.463 10.632C149.475 11.112 149.529 11.508 149.625 11.82C149.721 12.126 149.856 12.363 150.03 12.531C150.21 12.699 150.429 12.816 150.687 12.882L153.657 13.656C155.211 14.058 156.408 14.829 157.248 15.969C158.088 17.103 158.544 18.609 158.616 20.487C158.628 20.841 158.631 21.192 158.625 21.54C158.625 21.888 158.622 22.242 158.616 22.602C158.61 22.956 158.598 23.328 158.58 23.718C158.484 26.094 157.902 27.792 156.834 28.812C155.772 29.826 154.074 30.333 151.74 30.333ZM151.74 28.839C150.09 28.839 148.872 28.449 148.086 27.669C147.3 26.883 146.871 25.545 146.799 23.655C146.781 23.181 146.772 22.668 146.772 22.116C146.778 21.558 146.79 21.027 146.808 20.523C146.826 20.013 146.856 19.605 146.898 19.299H147.816C147.786 19.635 147.759 20.031 147.735 20.487C147.711 20.937 147.699 21.432 147.699 21.972C147.699 22.506 147.708 23.067 147.726 23.655C147.786 25.245 148.128 26.382 148.752 27.066C149.382 27.744 150.378 28.083 151.74 28.083C153.12 28.083 154.125 27.741 154.755 27.057C155.385 26.367 155.733 25.233 155.799 23.655C155.817 23.223 155.829 22.845 155.835 22.521C155.841 22.191 155.844 21.876 155.844 21.576C155.844 21.27 155.838 20.946 155.826 20.604C155.796 19.776 155.667 19.077 155.439 18.507C155.217 17.931 154.902 17.469 154.494 17.121C154.086 16.767 153.591 16.515 153.009 16.365L149.985 15.582C149.337 15.414 148.77 15.138 148.284 14.754C147.798 14.364 147.414 13.839 147.132 13.179C146.856 12.513 146.703 11.691 146.673 10.713C146.667 10.329 146.661 9.96 146.655 9.606C146.655 9.252 146.655 8.901 146.655 8.553C146.661 8.205 146.67 7.854 146.682 7.5C146.748 5.622 147.18 4.296 147.978 3.522C148.782 2.748 150.036 2.361 151.74 2.361C153.408 2.361 154.62 2.76 155.376 3.558C156.132 4.356 156.546 5.676 156.618 7.518C156.636 7.998 156.639 8.655 156.627 9.489C156.615 10.317 156.591 11.085 156.555 11.793H155.637C155.661 11.139 155.679 10.401 155.691 9.579C155.709 8.751 155.709 8.064 155.691 7.518C155.625 5.94 155.286 4.812 154.674 4.134C154.062 3.456 153.084 3.117 151.74 3.117C150.408 3.117 149.4 3.435 148.716 4.071C148.038 4.701 147.669 5.847 147.609 7.509C147.591 8.115 147.582 8.664 147.582 9.156C147.582 9.648 147.591 10.158 147.609 10.686C147.633 11.478 147.747 12.144 147.951 12.684C148.161 13.224 148.455 13.656 148.833 13.98C149.211 14.304 149.67 14.538 150.21 14.682L153.225 15.465C154.335 15.747 155.187 16.308 155.781 17.148C156.381 17.988 156.705 19.125 156.753 20.559C156.765 20.895 156.771 21.213 156.771 21.513C156.777 21.807 156.774 22.119 156.762 22.449C156.756 22.779 156.744 23.178 156.726 23.646C156.654 25.464 156.237 26.784 155.475 27.606C154.719 28.428 153.474 28.839 151.74 28.839ZM151.74 27.336C150.708 27.336 149.949 27.054 149.463 26.49C148.977 25.92 148.707 24.951 148.653 23.583C148.641 23.079 148.635 22.572 148.635 22.062C148.635 21.546 148.644 21.054 148.662 20.586C148.68 20.112 148.704 19.683 148.734 19.299H149.652C149.622 19.749 149.598 20.199 149.58 20.649C149.562 21.093 149.553 21.555 149.553 22.035C149.553 22.509 149.562 23.016 149.58 23.556C149.622 24.558 149.793 25.314 150.093 25.824C150.393 26.334 150.942 26.589 151.74 26.589C152.484 26.589 153.027 26.355 153.369 25.887C153.711 25.413 153.903 24.624 153.945 23.52C153.963 23.076 153.972 22.695 153.972 22.377C153.978 22.053 153.981 21.759 153.981 21.495C153.981 21.225 153.975 20.946 153.963 20.658C153.951 20.13 153.888 19.698 153.774 19.362C153.66 19.02 153.501 18.753 153.297 18.561C153.099 18.369 152.856 18.24 152.568 18.174L149.517 17.382C148.533 17.13 147.696 16.716 147.006 16.14C146.322 15.564 145.794 14.829 145.422 13.935C145.056 13.041 144.855 11.988 144.819 10.776C144.801 10.152 144.792 9.576 144.792 9.048C144.798 8.52 144.81 7.983 144.828 7.437C144.918 5.109 145.494 3.432 146.556 2.406C147.618 1.38 149.346 0.866998 151.74 0.866998C153.99 0.866998 155.649 1.365 156.717 2.361C157.791 3.351 158.376 5.046 158.472 7.446C158.49 7.926 158.493 8.604 158.481 9.48C158.469 10.35 158.448 11.121 158.418 11.793H157.482C157.524 11.049 157.548 10.266 157.554 9.444C157.566 8.616 157.563 7.962 157.545 7.482C157.467 5.37 156.972 3.864 156.06 2.964C155.154 2.064 153.714 1.614 151.74 1.614C149.688 1.614 148.197 2.064 147.267 2.964C146.337 3.858 145.833 5.358 145.755 7.464C145.731 8.124 145.719 8.703 145.719 9.201C145.725 9.699 145.734 10.215 145.746 10.749C145.782 11.811 145.956 12.732 146.268 13.512C146.58 14.286 147.027 14.922 147.609 15.42C148.197 15.912 148.911 16.266 149.751 16.482L152.793 17.274C153.219 17.382 153.582 17.568 153.882 17.832C154.188 18.09 154.428 18.447 154.602 18.903C154.776 19.359 154.875 19.935 154.899 20.631C154.911 20.973 154.917 21.282 154.917 21.558C154.917 21.834 154.914 22.128 154.908 22.44C154.902 22.746 154.887 23.121 154.863 23.565C154.809 24.915 154.542 25.881 154.062 26.463C153.588 27.045 152.814 27.336 151.74 27.336ZM170.195 30.333C167.771 30.333 166.028 29.823 164.966 28.803C163.904 27.777 163.355 26.085 163.319 23.727C163.289 21.723 163.271 19.824 163.265 18.03C163.259 16.236 163.259 14.475 163.265 12.747C163.277 11.019 163.295 9.255 163.319 7.455C163.355 5.103 163.901 3.42 164.957 2.406C166.013 1.386 167.744 0.875999 170.15 0.875999C172.49 0.875999 174.191 1.38 175.253 2.388C176.321 3.396 176.894 5.085 176.972 7.455C176.984 7.725 176.99 8.037 176.99 8.391C176.99 8.739 176.987 9.111 176.981 9.507C176.981 9.897 176.978 10.29 176.972 10.686C176.966 11.082 176.957 11.454 176.945 11.802H176.009C176.027 11.34 176.039 10.842 176.045 10.308C176.057 9.768 176.063 9.249 176.063 8.751C176.063 8.247 176.057 7.821 176.045 7.473C175.973 5.379 175.478 3.882 174.56 2.982C173.648 2.076 172.178 1.623 170.15 1.623C168.062 1.623 166.562 2.076 165.65 2.982C164.744 3.888 164.276 5.385 164.246 7.473C164.222 9.309 164.204 11.136 164.192 12.954C164.186 14.772 164.186 16.578 164.192 18.372C164.204 20.166 164.222 21.945 164.246 23.709C164.276 25.809 164.75 27.315 165.668 28.227C166.592 29.133 168.101 29.586 170.195 29.586C172.247 29.586 173.738 29.133 174.668 28.227C175.598 27.321 176.105 25.815 176.189 23.709C176.207 23.109 176.216 22.425 176.216 21.657C176.222 20.883 176.21 20.097 176.18 19.299H177.107C177.131 20.025 177.143 20.799 177.143 21.621C177.149 22.437 177.14 23.139 177.116 23.727C177.032 26.085 176.453 27.777 175.379 28.803C174.305 29.823 172.577 30.333 170.195 30.333ZM170.195 28.839C168.431 28.839 167.159 28.443 166.379 27.651C165.605 26.859 165.206 25.542 165.182 23.7C165.152 21.888 165.131 20.1 165.119 18.336C165.113 16.572 165.113 14.796 165.119 13.008C165.131 11.214 165.152 9.369 165.182 7.473C165.206 5.649 165.602 4.344 166.37 3.558C167.144 2.766 168.404 2.37 170.15 2.37C171.848 2.37 173.081 2.766 173.849 3.558C174.623 4.344 175.043 5.652 175.109 7.482C175.121 7.746 175.127 8.061 175.127 8.427C175.133 8.793 175.133 9.18 175.127 9.588C175.121 9.99 175.115 10.383 175.109 10.767C175.103 11.151 175.094 11.496 175.082 11.802H174.155C174.179 11.178 174.191 10.599 174.191 10.065C174.197 9.525 174.2 9.039 174.2 8.607C174.2 8.175 174.194 7.815 174.182 7.527C174.128 5.967 173.789 4.842 173.165 4.152C172.547 3.462 171.542 3.117 170.15 3.117C168.722 3.117 167.696 3.453 167.072 4.125C166.454 4.797 166.133 5.913 166.109 7.473C166.085 9.261 166.067 11.043 166.055 12.819C166.043 14.589 166.043 16.38 166.055 18.192C166.067 19.998 166.085 21.849 166.109 23.745C166.133 25.317 166.463 26.436 167.099 27.102C167.735 27.762 168.761 28.092 170.177 28.092C171.635 28.092 172.673 27.741 173.291 27.039C173.915 26.331 174.26 25.203 174.326 23.655C174.344 23.283 174.353 22.863 174.353 22.395C174.359 21.927 174.359 21.432 174.353 20.91C174.353 20.382 174.344 19.845 174.326 19.299H175.253C175.271 19.785 175.28 20.298 175.28 20.838C175.286 21.372 175.286 21.888 175.28 22.386C175.28 22.884 175.271 23.328 175.253 23.718C175.187 25.554 174.758 26.868 173.966 27.66C173.174 28.446 171.917 28.839 170.195 28.839ZM170.177 27.345C169.085 27.345 168.293 27.072 167.801 26.526C167.309 25.974 167.054 25.044 167.036 23.736C167.012 21.954 166.994 20.175 166.982 18.399C166.976 16.623 166.976 14.832 166.982 13.026C166.994 11.214 167.012 9.366 167.036 7.482C167.054 6.18 167.303 5.253 167.783 4.701C168.263 4.143 169.052 3.864 170.15 3.864C171.2 3.864 171.965 4.149 172.445 4.719C172.931 5.283 173.201 6.216 173.255 7.518C173.267 7.806 173.273 8.166 173.273 8.598C173.273 9.03 173.27 9.516 173.264 10.056C173.258 10.596 173.246 11.178 173.228 11.802H172.292C172.316 11.178 172.331 10.593 172.337 10.047C172.343 9.495 172.346 9.009 172.346 8.589C172.346 8.169 172.34 7.836 172.328 7.59C172.286 6.582 172.106 5.835 171.788 5.349C171.47 4.857 170.924 4.611 170.15 4.611C169.376 4.611 168.821 4.833 168.485 5.277C168.155 5.715 167.981 6.456 167.963 7.5C167.939 9.318 167.921 11.109 167.909 12.873C167.897 14.631 167.897 16.404 167.909 18.192C167.921 19.974 167.939 21.816 167.963 23.718C167.981 24.762 168.161 25.503 168.503 25.941C168.845 26.379 169.403 26.598 170.177 26.598C170.939 26.598 171.497 26.373 171.851 25.923C172.211 25.467 172.418 24.705 172.472 23.637C172.49 23.157 172.499 22.506 172.499 21.684C172.499 20.856 172.487 20.061 172.463 19.299H173.39C173.42 20.037 173.435 20.802 173.435 21.594C173.435 22.386 173.423 23.061 173.399 23.619C173.345 24.957 173.069 25.914 172.571 26.49C172.073 27.06 171.275 27.345 170.177 27.345ZM180.985 30L184.747 1.2H192.235L195.997 30H195.052L191.425 1.956H185.557L181.93 30H180.985ZM184.729 30L185.683 22.503H191.299L192.253 30H191.29L190.552 23.25H186.43L185.692 30H184.729ZM182.839 30L186.115 2.721H190.867L194.143 30H193.18L192.19 21.756H184.792L183.802 30H182.839ZM184.855 21.009H192.1L191.191 12.828L190.057 3.477H186.925L185.755 12.828L184.855 21.009ZM185.908 20.262L186.655 12.828L187.555 4.179H189.427L190.363 12.828L191.083 20.262H185.908ZM186.871 19.515H190.12L189.499 12.828L188.743 4.935H188.239L187.483 12.828L186.871 19.515Z" fill="url(#paint0_linear_1_402)"/>
<defs>
<linearGradient id="paint0_linear_1_402" x1="21.9595" y1="-1.99999" x2="163.833" y2="-4.18839" gradientUnits="userSpaceOnUse">
<stop stop-color="#754ABC"/>
<stop offset="1" stop-color="#009FE8"/>
</linearGradient>
</defs>
</svg>
