<svg width="390" height="844" viewBox="0 0 390 844" fill="none" xmlns="http://www.w3.org/2000/svg">
<g filter="url(#filter0_f_1_404)">
<circle cx="279.816" cy="279.816" r="279.816" transform="matrix(-0.47775 -0.878496 -0.878496 0.47775 568 477.635)" fill="url(#paint0_linear_1_404)"/>
</g>
<g filter="url(#filter1_f_1_404)">
<path d="M283.415 138.51C330.006 138.51 375.69 151.388 415.421 175.722C455.153 200.056 487.384 234.899 508.556 276.401C529.728 317.904 539.017 364.451 535.395 410.901C531.774 457.351 515.383 501.896 488.034 539.615C460.686 577.335 423.443 606.761 380.42 624.643C337.398 642.525 290.269 648.167 244.242 640.945C198.214 633.724 155.077 613.921 119.598 583.723C84.1183 553.525 57.6762 514.108 43.1926 469.825L104.728 449.699C115.501 482.638 135.17 511.958 161.561 534.421C187.952 556.883 220.039 571.614 254.276 576.985C288.514 582.356 323.57 578.16 355.572 564.858C387.574 551.557 415.276 529.669 435.619 501.611C455.963 473.554 468.154 440.42 470.848 405.868C473.542 371.317 466.633 336.693 450.884 305.822C435.136 274.951 411.16 249.033 381.607 230.932C352.053 212.832 318.071 203.252 283.415 203.252V138.51Z" fill="url(#paint1_linear_1_404)"/>
</g>
<g filter="url(#filter2_f_1_404)">
<path d="M443.668 740.163C471.931 711.313 488.683 673.133 490.777 632.8C492.87 592.467 480.161 552.758 455.037 521.136C429.913 489.514 394.105 468.157 354.343 461.079C314.581 454.001 273.602 461.689 239.109 482.698C204.617 503.708 178.985 536.591 167.031 575.169C155.078 613.747 157.626 655.363 174.196 692.194C190.767 729.026 220.219 758.537 257.017 775.181C293.815 791.826 335.425 794.457 374.027 782.581L354.958 720.598C331.464 727.826 306.139 726.224 283.743 716.094C261.347 705.964 243.422 688.003 233.337 665.587C223.252 643.17 221.701 617.842 228.976 594.363C236.251 570.884 251.851 550.87 272.844 538.084C293.837 525.297 318.777 520.618 342.977 524.926C367.178 529.234 388.971 542.232 404.262 561.478C419.553 580.723 427.288 604.891 426.014 629.438C424.74 653.986 414.544 677.223 397.343 694.782L443.668 740.163Z" fill="url(#paint2_linear_1_404)"/>
</g>
<defs>
<filter id="filter0_f_1_404" x="-231.587" y="-54.5868" width="840.174" height="840.173" filterUnits="userSpaceOnUse" color-interpolation-filters="sRGB">
<feFlood flood-opacity="0" result="BackgroundImageFix"/>
<feBlend mode="normal" in="SourceGraphic" in2="BackgroundImageFix" result="shape"/>
<feGaussianBlur stdDeviation="70.1085" result="effect1_foregroundBlur_1_404"/>
</filter>
<filter id="filter1_f_1_404" x="-97.0245" y="-1.70753" width="773.402" height="785.924" filterUnits="userSpaceOnUse" color-interpolation-filters="sRGB">
<feFlood flood-opacity="0" result="BackgroundImageFix"/>
<feBlend mode="normal" in="SourceGraphic" in2="BackgroundImageFix" result="shape"/>
<feGaussianBlur stdDeviation="70.1085" result="effect1_foregroundBlur_1_404"/>
</filter>
<filter id="filter2_f_1_404" x="19.3904" y="318.297" width="611.827" height="611.827" filterUnits="userSpaceOnUse" color-interpolation-filters="sRGB">
<feFlood flood-opacity="0" result="BackgroundImageFix"/>
<feBlend mode="normal" in="SourceGraphic" in2="BackgroundImageFix" result="shape"/>
<feGaussianBlur stdDeviation="70.1085" result="effect1_foregroundBlur_1_404"/>
</filter>
<linearGradient id="paint0_linear_1_404" x1="259.194" y1="139.908" x2="384.546" y2="559.633" gradientUnits="userSpaceOnUse">
<stop stop-color="#CCC4FD"/>
<stop offset="1" stop-color="#2730FF" stop-opacity="0"/>
</linearGradient>
<linearGradient id="paint1_linear_1_404" x1="499.271" y1="469.05" x2="254.196" y2="337.199" gradientUnits="userSpaceOnUse">
<stop stop-color="#F5F0C5"/>
<stop offset="0.729457" stop-color="#FF00E5" stop-opacity="0"/>
</linearGradient>
<linearGradient id="paint2_linear_1_404" x1="188.684" y1="633.879" x2="517.49" y2="645.451" gradientUnits="userSpaceOnUse">
<stop stop-color="#99F3FF"/>
<stop offset="1" stop-color="#4BFFB4" stop-opacity="0"/>
</linearGradient>
</defs>
</svg>
