<?xml version="1.0" standalone="no"?><!DOCTYPE svg PUBLIC "-//W3C//DTD SVG 1.1//EN" "http://www.w3.org/Graphics/SVG/1.1/DTD/svg11.dtd"><svg t="1729325094635" class="icon" viewBox="0 0 1024 1024" version="1.1" xmlns="http://www.w3.org/2000/svg" p-id="14040" xmlns:xlink="http://www.w3.org/1999/xlink" width="200" height="200"><path d="M889.792 295.808l-161.664-161.664a48.192 48.192 0 0 0-34.304-14.144 47.424 47.424 0 0 0-34.24 14.144l-525.312 525.376a48.32 48.32 0 0 0-14.272 34.304v161.856a47.808 47.808 0 0 0 14.208 34.048 48.512 48.512 0 0 0 34.176 14.336h161.728a48 48 0 0 0 34.304-14.208l525.312-525.376a48.448 48.448 0 0 0 0-68.544z m-579.84 511.168h-93.184v-93.44l355.776-355.776 93.184 93.248z m424.32-424.32l-93.248-93.184 52.672-52.672 93.248 93.184z" fill="#8a8a8a" p-id="14041"></path><path d="M128 808.064m48 0l680 0q48 0 48 48l0 0q0 48-48 48l-680 0q-48 0-48-48l0 0q0-48 48-48Z" fill="#8a8a8a" p-id="14042"></path></svg>