<svg width="17" height="18" viewBox="0 0 17 18" fill="none" xmlns="http://www.w3.org/2000/svg">
<g id="Group 70747">
<ellipse id="Ellipse 133" cx="8.7393" cy="7.72707" rx="1.40727" ry="1.58669" stroke="#823DB8"/>
<path id="Vector 20" d="M1 16.7185H1.71056M16.48 16.7185H15.7187M1.71056 16.7185V10.2184C1.71056 9.11382 2.60599 8.21839 3.71056 8.21839H4.70505M1.71056 16.7185H4.70505M4.70505 8.21839V16.7185M4.70505 8.21839V3.97692M4.70505 16.7185H7.192M3.63921 4.81834L4.70505 3.97692M13.8408 4.81834L12.775 4.00167M12.775 16.7185V8.21839M12.775 16.7185H15.7187M12.775 16.7185H10.1865M12.775 4.00167L9.89862 1.79773C9.17236 1.24125 8.16107 1.24856 7.44293 1.8155L4.70505 3.97692M12.775 4.00167V8.21839M12.775 8.21839H13.7187C14.8233 8.21839 15.7187 9.11382 15.7187 10.2184V16.7185M7.192 16.7185V15.0424C7.192 14.2155 7.86234 13.5451 8.68925 13.5451V13.5451C9.51615 13.5451 10.1865 14.2155 10.1865 15.0424V16.7185M7.192 16.7185H10.1865" stroke="#823DB8" stroke-linecap="round"/>
</g>
</svg>
