<svg width="86" height="86" viewBox="0 0 86 86" fill="none" xmlns="http://www.w3.org/2000/svg">
<g filter="url(#filter0_d_1_454)">
<path d="M40.2544 11.252C27.4504 11.252 16.9744 20.6125 16.9744 32.301C16.9744 33.853 17.1684 35.3565 17.5079 36.8115L14.2099 44.1835C13.7249 45.202 14.2099 46.463 15.2769 46.8995C15.4709 46.9965 15.6164 47.045 15.8104 47.045C19.3024 47.53 20.7574 49.082 20.7574 52.0405V59.267C20.7574 61.5465 22.6004 63.3895 24.8799 63.3895H26.2379C28.5174 63.3895 30.3604 65.2325 30.3604 67.512V71.1495C30.3604 72.3135 31.2819 73.235 32.4459 73.235H54.7559C55.9199 73.235 56.8414 72.3135 56.8414 71.1495C56.8414 69.9855 55.9199 69.064 54.7559 69.064H34.5314V67.4635C34.5314 62.9045 30.8454 59.2185 26.2864 59.2185H24.9284V51.992C24.9284 47.7725 22.8429 44.8625 19.0599 43.5045L21.6304 37.83C21.8244 37.3935 21.8729 36.9085 21.7274 36.4235C21.3394 35.0655 21.1454 33.7075 21.1454 32.301C21.1454 23.0375 29.6814 15.3745 40.3029 15.3745C50.9244 15.3745 59.4604 22.989 59.4604 32.301C59.4604 33.465 60.3819 34.3865 61.5459 34.3865C62.7099 34.3865 63.6314 33.465 63.6314 32.301C63.5344 20.6125 53.0584 11.252 40.2544 11.252Z" fill="url(#paint0_linear_1_454)" shape-rendering="crispEdges"/>
</g>
<g filter="url(#filter1_d_1_454)">
<path d="M69.3551 34.241C67.5121 34.241 66.0086 35.7445 66.0086 37.5875C66.0086 39.4305 67.5121 40.934 69.3551 40.934C71.1981 40.934 72.7016 39.4305 72.7016 37.5875C72.7501 35.7445 71.2466 34.241 69.3551 34.241ZM69.3551 39.4305C68.3366 39.4305 67.4636 38.606 67.4636 37.539C67.4636 36.472 68.2881 35.6475 69.3551 35.6475C70.4221 35.6475 71.2466 36.472 71.2466 37.539C71.2466 38.606 70.4221 39.4305 69.3551 39.4305Z" fill="url(#paint1_radial_1_454)"/>
<path d="M42.9711 67.124C42.5831 67.124 42.0496 67.221 42.0496 66.3965C42.0496 59.8005 42.0011 50.1975 42.0981 43.6015C42.0981 40.4975 43.9896 34.6775 50.5371 34.6775C57.4241 34.6775 58.9276 40.9825 58.9276 43.6015C58.9276 48.0635 58.9761 62.1285 58.9761 66.348C58.9761 67.124 58.9761 67.124 58.2486 67.124C56.8906 67.124 59.1216 67.124 57.7636 67.124C56.5511 67.124 56.5511 67.124 56.5511 66.1055V43.6015C56.5511 40.6915 54.8536 36.86 50.4886 36.86C46.2206 36.86 44.6201 40.6915 44.6201 43.6015C44.5716 47.142 44.6201 63.729 44.6201 66.3965C44.6201 67.1725 44.2321 67.124 43.9411 67.124" fill="black" fill-opacity="0.9"/>
<path d="M66.2026 42.5829H67.7546C67.8516 42.5829 67.9001 42.6314 67.9001 42.7284V65.1839C67.9001 65.4749 68.1426 65.7174 68.4336 65.7174H70.3251C70.6161 65.7174 70.8586 65.4749 70.8586 65.1839V42.7284C70.8586 42.6314 70.9071 42.5829 71.0041 42.5829H72.5076C72.6046 42.5829 72.6531 42.6314 72.6531 42.7284C72.6531 42.9224 72.6531 43.0679 72.6531 43.2134C72.6531 50.9249 72.6531 58.6364 72.7016 66.2994C72.7016 66.93 72.4106 67.1724 71.8286 67.2209C70.4706 67.2209 68.4336 67.2209 67.0271 67.2209C66.1056 67.1724 65.9601 66.9784 65.9601 66.1054C65.9601 58.4909 65.9601 50.8764 65.9601 43.2619C65.9601 43.1164 65.9601 42.9224 65.9601 42.7284C66.0571 42.6799 66.1056 42.5829 66.2026 42.5829Z" fill="black" fill-opacity="0.9"/>
<path d="M38.4121 53.059C40.8371 53.059 57.0846 53.059 62.7106 53.059C62.8076 53.059 62.8561 53.1075 62.8561 53.2045V54.708C62.8561 54.805 62.8076 54.8535 62.7106 54.8535C62.5166 54.8535 62.3711 54.8535 62.2256 54.8535C54.5141 54.8535 46.1236 54.8535 38.4121 54.902C38.1696 54.902 38.1211 54.902 38.1211 54.708C38.1211 54.708 38.1211 54.223 38.1211 53.544C38.1696 53.059 38.1696 53.059 38.4121 53.059Z" fill="url(#paint2_radial_1_454)"/>
</g>
<g filter="url(#filter2_i_1_454)">
<path d="M6.111 6.111V27.5965C6.111 29.4395 4.8985 30.652 3.0555 30.652C1.2125 30.652 0 29.4395 0 27.5965V3.0555C0 1.2125 1.2125 0 3.0555 0H27.645C29.488 0 30.7005 1.2125 30.7005 3.0555C30.7005 4.8985 29.4395 6.111 27.5965 6.111H6.111Z" fill="url(#paint3_linear_1_454)"/>
</g>
<g filter="url(#filter3_i_1_454)">
<path d="M6.111 79.831H27.5965C29.4395 79.831 30.652 81.0435 30.652 82.8865C30.652 84.7295 29.4395 85.942 27.5965 85.942H3.0555C1.2125 85.942 0 84.7295 0 82.8865V58.297C0 56.454 1.2125 55.2415 3.0555 55.2415C4.8985 55.2415 6.111 56.454 6.111 58.297V79.831Z" fill="url(#paint4_linear_1_454)"/>
</g>
<g filter="url(#filter4_i_1_454)">
<path d="M79.8301 6.111H58.3446C56.5016 6.111 55.2891 4.8985 55.2891 3.0555C55.2891 1.2125 56.5016 0 58.3446 0H82.9341C84.7771 0 85.9896 1.2125 85.9896 3.0555V27.645C85.9896 29.488 84.7771 30.7005 82.9341 30.7005C81.0911 30.7005 79.8786 29.488 79.8786 27.645V6.111H79.8301Z" fill="url(#paint5_linear_1_454)"/>
</g>
<g filter="url(#filter5_i_1_454)">
<path d="M79.8297 79.831V58.3455C79.8297 56.5025 81.0422 55.29 82.8852 55.29C84.7282 55.29 85.9407 56.5025 85.9407 58.3455V82.935C85.9407 84.778 84.7282 85.9905 82.8852 85.9905H58.2957C56.4527 85.9905 55.2402 84.778 55.2402 82.935C55.2402 81.092 56.4527 79.8795 58.2957 79.8795H79.8297V79.831Z" fill="url(#paint6_linear_1_454)"/>
</g>
<defs>
<filter id="filter0_d_1_454" x="13.0215" y="11.252" width="57.6099" height="69.983" filterUnits="userSpaceOnUse" color-interpolation-filters="sRGB">
<feFlood flood-opacity="0" result="BackgroundImageFix"/>
<feColorMatrix in="SourceAlpha" type="matrix" values="0 0 0 0 0 0 0 0 0 0 0 0 0 0 0 0 0 0 127 0" result="hardAlpha"/>
<feOffset dx="3" dy="4"/>
<feGaussianBlur stdDeviation="2"/>
<feComposite in2="hardAlpha" operator="out"/>
<feColorMatrix type="matrix" values="0 0 0 0 0 0 0 0 0 0 0 0 0 0 0 0 0 0 0.4 0"/>
<feBlend mode="normal" in2="BackgroundImageFix" result="effect1_dropShadow_1_454"/>
<feBlend mode="normal" in="SourceGraphic" in2="effect1_dropShadow_1_454" result="shape"/>
</filter>
<filter id="filter1_d_1_454" x="37.1211" y="34.241" width="42.5816" height="40.98" filterUnits="userSpaceOnUse" color-interpolation-filters="sRGB">
<feFlood flood-opacity="0" result="BackgroundImageFix"/>
<feColorMatrix in="SourceAlpha" type="matrix" values="0 0 0 0 0 0 0 0 0 0 0 0 0 0 0 0 0 0 127 0" result="hardAlpha"/>
<feOffset dx="3" dy="4"/>
<feGaussianBlur stdDeviation="2"/>
<feComposite in2="hardAlpha" operator="out"/>
<feColorMatrix type="matrix" values="0 0 0 0 0 0 0 0 0 0 0 0 0 0 0 0 0 0 0.4 0"/>
<feBlend mode="normal" in2="BackgroundImageFix" result="effect1_dropShadow_1_454"/>
<feBlend mode="normal" in="SourceGraphic" in2="effect1_dropShadow_1_454" result="shape"/>
</filter>
<filter id="filter2_i_1_454" x="0" y="0" width="30.7005" height="34.652" filterUnits="userSpaceOnUse" color-interpolation-filters="sRGB">
<feFlood flood-opacity="0" result="BackgroundImageFix"/>
<feBlend mode="normal" in="SourceGraphic" in2="BackgroundImageFix" result="shape"/>
<feColorMatrix in="SourceAlpha" type="matrix" values="0 0 0 0 0 0 0 0 0 0 0 0 0 0 0 0 0 0 127 0" result="hardAlpha"/>
<feOffset dy="4"/>
<feGaussianBlur stdDeviation="2"/>
<feComposite in2="hardAlpha" operator="arithmetic" k2="-1" k3="1"/>
<feColorMatrix type="matrix" values="0 0 0 0 0 0 0 0 0 0 0 0 0 0 0 0 0 0 0.25 0"/>
<feBlend mode="normal" in2="shape" result="effect1_innerShadow_1_454"/>
</filter>
<filter id="filter3_i_1_454" x="0" y="55.2415" width="30.652" height="34.7005" filterUnits="userSpaceOnUse" color-interpolation-filters="sRGB">
<feFlood flood-opacity="0" result="BackgroundImageFix"/>
<feBlend mode="normal" in="SourceGraphic" in2="BackgroundImageFix" result="shape"/>
<feColorMatrix in="SourceAlpha" type="matrix" values="0 0 0 0 0 0 0 0 0 0 0 0 0 0 0 0 0 0 127 0" result="hardAlpha"/>
<feOffset dy="4"/>
<feGaussianBlur stdDeviation="2"/>
<feComposite in2="hardAlpha" operator="arithmetic" k2="-1" k3="1"/>
<feColorMatrix type="matrix" values="0 0 0 0 0 0 0 0 0 0 0 0 0 0 0 0 0 0 0.25 0"/>
<feBlend mode="normal" in2="shape" result="effect1_innerShadow_1_454"/>
</filter>
<filter id="filter4_i_1_454" x="55.2891" y="0" width="30.7005" height="34.7005" filterUnits="userSpaceOnUse" color-interpolation-filters="sRGB">
<feFlood flood-opacity="0" result="BackgroundImageFix"/>
<feBlend mode="normal" in="SourceGraphic" in2="BackgroundImageFix" result="shape"/>
<feColorMatrix in="SourceAlpha" type="matrix" values="0 0 0 0 0 0 0 0 0 0 0 0 0 0 0 0 0 0 127 0" result="hardAlpha"/>
<feOffset dy="4"/>
<feGaussianBlur stdDeviation="2"/>
<feComposite in2="hardAlpha" operator="arithmetic" k2="-1" k3="1"/>
<feColorMatrix type="matrix" values="0 0 0 0 0 0 0 0 0 0 0 0 0 0 0 0 0 0 0.25 0"/>
<feBlend mode="normal" in2="shape" result="effect1_innerShadow_1_454"/>
</filter>
<filter id="filter5_i_1_454" x="55.2402" y="55.29" width="30.7005" height="34.7005" filterUnits="userSpaceOnUse" color-interpolation-filters="sRGB">
<feFlood flood-opacity="0" result="BackgroundImageFix"/>
<feBlend mode="normal" in="SourceGraphic" in2="BackgroundImageFix" result="shape"/>
<feColorMatrix in="SourceAlpha" type="matrix" values="0 0 0 0 0 0 0 0 0 0 0 0 0 0 0 0 0 0 127 0" result="hardAlpha"/>
<feOffset dy="4"/>
<feGaussianBlur stdDeviation="2"/>
<feComposite in2="hardAlpha" operator="arithmetic" k2="-1" k3="1"/>
<feColorMatrix type="matrix" values="0 0 0 0 0 0 0 0 0 0 0 0 0 0 0 0 0 0 0.25 0"/>
<feBlend mode="normal" in2="shape" result="effect1_innerShadow_1_454"/>
</filter>
<linearGradient id="paint0_linear_1_454" x1="38.8265" y1="11.252" x2="38.8265" y2="73.235" gradientUnits="userSpaceOnUse">
<stop stop-color="#FF5C00"/>
<stop offset="1" stop-color="#CA68C0" stop-opacity="0.42"/>
</linearGradient>
<radialGradient id="paint1_radial_1_454" cx="0" cy="0" r="1" gradientUnits="userSpaceOnUse" gradientTransform="translate(69.3778 37.5716) scale(3.34878)">
<stop offset="0.0226318" stop-color="#74C298"/>
<stop offset="0.4312" stop-color="#5BBDAB"/>
<stop offset="0.6581" stop-color="#0A8BCC"/>
<stop offset="0.9988" stop-color="#193E96"/>
</radialGradient>
<radialGradient id="paint2_radial_1_454" cx="0" cy="0" r="1" gradientUnits="userSpaceOnUse" gradientTransform="translate(50.5122 54.0026) scale(8.76439 8.76438)">
<stop offset="0.0226318" stop-color="#74C298"/>
<stop offset="0.4312" stop-color="#5BBDAB"/>
<stop offset="0.6581" stop-color="#0A8BCC"/>
<stop offset="0.9988" stop-color="#193E96"/>
</radialGradient>
<linearGradient id="paint3_linear_1_454" x1="15.3502" y1="0" x2="15.3502" y2="30.652" gradientUnits="userSpaceOnUse">
<stop stop-color="#FF5C00"/>
<stop offset="1" stop-color="#CA68C0" stop-opacity="0.42"/>
</linearGradient>
<linearGradient id="paint4_linear_1_454" x1="15.326" y1="55.2415" x2="15.326" y2="85.942" gradientUnits="userSpaceOnUse">
<stop stop-color="#FF5C00"/>
<stop offset="1" stop-color="#CA68C0" stop-opacity="0.42"/>
</linearGradient>
<linearGradient id="paint5_linear_1_454" x1="70.6393" y1="0" x2="70.6393" y2="30.7005" gradientUnits="userSpaceOnUse">
<stop stop-color="#FF5C00"/>
<stop offset="1" stop-color="#CA68C0" stop-opacity="0.42"/>
</linearGradient>
<linearGradient id="paint6_linear_1_454" x1="70.5905" y1="55.29" x2="70.5905" y2="85.9905" gradientUnits="userSpaceOnUse">
<stop stop-color="#FF5C00"/>
<stop offset="1" stop-color="#CA68C0" stop-opacity="0.42"/>
</linearGradient>
</defs>
</svg>
