<?xml version="1.0" standalone="no"?><!DOCTYPE svg PUBLIC "-//W3C//DTD SVG 1.1//EN" "http://www.w3.org/Graphics/SVG/1.1/DTD/svg11.dtd"><svg t="1729323336397" class="icon" viewBox="0 0 1024 1024" version="1.1" xmlns="http://www.w3.org/2000/svg" p-id="7447" xmlns:xlink="http://www.w3.org/1999/xlink" width="200" height="200"><path d="M290.210909 919.272727a94.952727 94.952727 0 0 1-56.32-18.618182 93.090909 93.090909 0 0 1-37.236364-93.090909L228.305455 628.363636a23.272727 23.272727 0 0 0-7.214546-23.272727l-133.818182-128a93.090909 93.090909 0 0 1-23.272727-96.349091A93.090909 93.090909 0 0 1 139.636364 316.043636l186.181818-26.530909a25.367273 25.367273 0 0 0 19.083636-13.498182l82.850909-165.46909a95.418182 95.418182 0 0 1 170.356364 0l82.850909 165.46909a25.367273 25.367273 0 0 0 19.083636 13.498182l186.181819 26.530909a93.090909 93.090909 0 0 1 77.032727 64.698182 93.090909 93.090909 0 0 1-23.272727 96.349091L802.909091 605.090909a23.272727 23.272727 0 0 0-7.214546 21.410909l31.65091 181.527273a93.090909 93.090909 0 0 1-37.236364 93.090909 94.72 94.72 0 0 1-100.538182 7.68l-165.701818-85.643636a25.134545 25.134545 0 0 0-23.272727 0L334.429091 907.636364a96.349091 96.349091 0 0 1-44.218182 11.636363zM512 128a24.901818 24.901818 0 0 0-23.272727 13.730909l-82.385455 165.469091a94.72 94.72 0 0 1-71.447273 51.432727l-186.181818 26.530909a23.272727 23.272727 0 0 0-20.48 16.989091 23.272727 23.272727 0 0 0 6.283637 23.272728l134.050909 128.698181a93.090909 93.090909 0 0 1 27.461818 83.781819l-30.72 182.923636a23.272727 23.272727 0 0 0 9.774545 23.272727 25.134545 25.134545 0 0 0 27.229091 2.094546l165.701818-85.876364a96.116364 96.116364 0 0 1 87.97091 0l165.46909 86.109091a25.134545 25.134545 0 0 0 27.229091-2.094546 23.272727 23.272727 0 0 0 9.774546-23.272727l-31.650909-181.76a93.090909 93.090909 0 0 1 27.461818-83.781818l134.050909-128.698182a23.272727 23.272727 0 0 0 6.283636-23.272727 23.272727 23.272727 0 0 0-20.48-16.989091l-186.181818-26.530909a94.72 94.72 0 0 1-71.447273-51.432727L535.272727 141.730909a24.901818 24.901818 0 0 0-23.272727-13.730909z" fill="#8a8a8a" p-id="7448"></path></svg>