<?xml version="1.0" standalone="no"?><!DOCTYPE svg PUBLIC "-//W3C//DTD SVG 1.1//EN" "http://www.w3.org/Graphics/SVG/1.1/DTD/svg11.dtd"><svg class="icon" width="200px" height="200.00px" viewBox="0 0 1024 1024" version="1.1" xmlns="http://www.w3.org/2000/svg"><path d="M233.472 553.751273l255.860364 0.046545a46.545455 46.545455 0 0 1 45.242181 57.413818l-44.497454 185.157819 250.368-297.960728h-171.706182a46.592 46.592 0 0 1-42.449454-65.629091l152.436363-339.549091L430.754909 93.090909l-197.259636 460.637091zM398.661818 1024a46.545455 46.545455 0 0 1-45.242182-57.413818l76.8-319.697455L162.909091 646.842182a46.568727 46.568727 0 0 1-42.775273-64.861091L357.236364 28.229818A46.545455 46.545455 0 0 1 400.034909 0l350.626909 0.162909a46.545455 46.545455 0 0 1 42.449455 65.605818l-152.436364 339.549091h199.68a46.545455 46.545455 0 0 1 35.607273 76.497455L434.362182 1007.406545A46.545455 46.545455 0 0 1 398.661818 1024z" fill="#ffffff" /></svg>