<?xml version="1.0" standalone="no"?><!DOCTYPE svg PUBLIC "-//W3C//DTD SVG 1.1//EN" "http://www.w3.org/Graphics/SVG/1.1/DTD/svg11.dtd"><svg class="icon" width="200px" height="200.00px" viewBox="0 0 1024 1024" version="1.1" xmlns="http://www.w3.org/2000/svg"><path d="M208.244364 338.501818l70.888727 70.912-61.789091 144.337455 206.196364 0.023272 87.645091 87.668364-37.236364 154.903273 87.738182-104.401455 66.094545 66.094546-209.570909 249.367272a46.545455 46.545455 0 0 1-80.872727-40.820363l76.8-319.720727-267.380364-0.023273a46.592 46.592 0 0 1-42.775273-64.884364l104.261819-243.456z m175.709091-338.525091l350.580363 0.162909a46.545455 46.545455 0 0 1 42.449455 65.629091l-152.436364 339.549091h199.68a46.545455 46.545455 0 0 1 35.630546 76.474182l-123.950546 147.549091 205.777455 205.754182a46.545455 46.545455 0 0 1-62.859637 68.561454l-2.955636-2.722909-815.709091-815.709091A46.545455 46.545455 0 0 1 123.066182 16.686545l2.955636 2.699637L279.272727 172.683636l61.858909-144.453818a46.568727 46.568727 0 0 1 39.098182-28.066909l3.677091-0.162909h0.023273z m340.363636 498.408728h-119.342546l64.861091 64.86109 54.481455-64.86109zM414.603636 93.090909l-64.465454 150.481455 169.053091 169.029818 143.429818-319.394909L414.603636 93.090909z" fill="#ffffff" /></svg>