<?xml version="1.0" standalone="no"?><!DOCTYPE svg PUBLIC "-//W3C//DTD SVG 1.1//EN" "http://www.w3.org/Graphics/SVG/1.1/DTD/svg11.dtd"><svg class="icon" width="200px" height="200.00px" viewBox="0 0 1024 1024" version="1.1" xmlns="http://www.w3.org/2000/svg"><path d="M872.4 574.9c12.9 14.8-4.2 10.5-4.2 10.5l-27-33.1 2.5-3.6c-0.5-0.4-1.2-0.8-2.1-1.3-0.3-0.1-0.5-0.2-0.9-0.3-1.9-0.7-3.9-1.2-6-1.2-8.9 0-16 7.1-16 16 0 6.9 5.4 11.6 10.3 14.9 23.1 17.7 35.8 38.4 35.8 59.4 0 48.1-68.2 90.2-170.3 113.5h0.1s-1.8 1.1-4 2.5l2.5 2s-8.7 3.7-9.1 3.8c-0.4 0.1-10.8-3.7-9.4-4.6-18.2 4.7-31.6 21.2-31.6 40.9 0 23.4 18.9 42.2 42.2 42.2 0.8 0 1.7 0 2.5-0.1v0.4c0.7-0.1 1.4-0.4 2.1-0.6 4.3-0.5 8.3-1.5 12.1-3.2 123.3-33.8 207-99.4 207-174.6 0.1-29.9-13-58.2-36.5-83.5zM674.8 753.4h-0.2 0.2zM421.8 764.8C269.2 750.1 156.5 698 156.5 636.2c0-21.8 14-42.7 38.9-60.9 4.4-2.8 7.4-7.8 7.4-13.5 0-8.9-7.2-16-16-16 0 0-5.9 0.1-11.7 5-39.8 31.1-63 67.9-63 107.5 0 94.9 132.4 174.1 309.8 194.2v49.3L599 813.2l-177.1-88.6v40.2z" fill="#ffffff" /><path d="M300.2 658.3c59.9 14 132.3 22.2 210.5 22.2 77.9 0 150.1-8.2 209.9-22.1 32.2-10.3 55.7-40.8 55.7-76.9V194.9c0-49.7-39.6-89.9-88.6-89.9h-354c-48.8 0-88.6 40.3-88.6 89.9v386.6c-0.1 36.1 23.2 66.3 55.1 76.8z m88.9-464.7c30.5 0 55.1 24.8 55.1 55.4 0 30.6-24.7 55.4-55.1 55.4-30.5 0-55.1-24.8-55.1-55.4-0.2-30.7 24.5-55.4 55.1-55.4zM684 758.1c0.4-0.1 9.1-3.8 9.1-3.8l-2.5-2c2.2-1.4 4-2.5 4-2.5h-0.1l-10.6 2c-3.5 0.5-7.8 1.2-9 1.7h-0.2c-1.5 0.9 8.9 4.7 9.3 4.6zM868.2 585.4s17.1 4.3 4.2-10.5l-0.2-0.2c-12-13.6-25.7-23.9-28.2-25.7-0.3-0.2-0.4-0.3-0.4-0.3l-2.5 3.6 27.1 33.1z" fill="#ffffff" /></svg>